<?xml version="1.0" encoding="UTF-8" standalone="no"?>
<svg
   version="1.1"
   viewBox="0 0 866 866"
   id="svg49"
   sodipodi:docname="alfa-romeo.svg"
   width="866"
   height="866"
   inkscape:version="1.3 (0e150ed6c4, 2023-07-21)"
   xmlns:inkscape="http://www.inkscape.org/namespaces/inkscape"
   xmlns:sodipodi="http://sodipodi.sourceforge.net/DTD/sodipodi-0.dtd"
   xmlns="http://www.w3.org/2000/svg"
   xmlns:svg="http://www.w3.org/2000/svg">
  <defs
     id="defs49" />
  <sodipodi:namedview
     id="namedview49"
     pagecolor="#ffffff"
     bordercolor="#000000"
     borderopacity="0.25"
     inkscape:showpageshadow="2"
     inkscape:pageopacity="0.0"
     inkscape:pagecheckerboard="0"
     inkscape:deskcolor="#d1d1d1"
     inkscape:zoom="0.34538819"
     inkscape:cx="340.19693"
     inkscape:cy="374.94045"
     inkscape:window-width="1366"
     inkscape:window-height="705"
     inkscape:window-x="-8"
     inkscape:window-y="-8"
     inkscape:window-maximized="1"
     inkscape:current-layer="svg49" />
  <g
     id="g49"
     transform="matrix(1.6120296,0,0,1.6120296,-265.29898,-91.070823)">
    <path
       fill="#000000"
       d="M 691,325.1 A 257.82,257.82 0 0 1 433.18,582.92 257.82,257.82 0 0 1 175.36,325.1 257.82,257.82 0 0 1 433.18,67.28 257.82,257.82 0 0 1 691,325.1 Z m -10.48,0 A 247.34,247.34 0 0 0 433.18,77.76 247.34,247.34 0 0 0 185.84,325.1 247.34,247.34 0 0 0 433.18,572.44 247.34,247.34 0 0 0 680.52,325.1 Z"
       id="path28" />
    <path
       fill="#000000"
       d="m 451.77,125.21 8.39,11.23 a 0.43,0.42 71.7 0 1 -0.34,0.68 l -11.11,-0.02 q -0.68,0 -1.08,-0.55 l -7.47,-10.36 q -0.31,-0.44 -0.84,-0.44 l -17.29,0.01 q -0.63,0 -0.63,0.63 l 0.03,10.07 q 0.01,0.64 -0.64,0.64 l -9.75,0.06 q -0.58,0 -0.58,-0.58 -0.02,-17.34 0.01,-34.54 0,-3.47 -1.92,-6.42 a 0.27,0.27 0 0 1 0.22,-0.42 q 16.73,0.14 34.73,-0.02 4.8,-0.04 7.49,1.24 c 7.37,3.53 9.84,11 8.19,18.59 q -1.35,6.25 -7.22,9.36 -0.58,0.31 -0.19,0.84 z m -30.89,-20.17 0.02,11.48 a 0.39,0.39 0 0 0 0.39,0.39 l 20.59,-0.03 a 6.24,5.7 -0.1 0 0 6.23,-5.71 v -0.86 a 6.24,5.7 -0.1 0 0 -6.25,-5.69 l -20.59,0.03 a 0.39,0.39 0 0 0 -0.39,0.39 z"
       id="path30" />
    <path
       fill="#000000"
       d="m 502.27,107 c 12.08,0.74 23.7,5.79 29.35,16.59 3.2,6.11 2.96,14.05 -1.14,19.79 q -7.05,9.89 -20.29,9.18 -15.92,-0.85 -25.91,-11.94 c -9.09,-10.09 -6.16,-25.66 5.98,-31.63 q 4.94,-2.43 12.01,-1.99 z m -11.6,16.68 c -5.17,13.49 15.9,23.59 25.68,17.92 4.7,-2.73 6.85,-8.92 4.87,-13.87 -4.09,-10.26 -25.48,-17.3 -30.55,-4.05 z"
       id="path32" />
    <path
       fill="#000000"
       d="m 322.93,162.83 -0.04,7.4 a 0.69,0.67 75.8 0 1 -0.33,0.57 l -8.9,5.13 a 0.47,0.47 0 0 1 -0.7,-0.4 q -0.21,-18.48 -0.51,-40.37 -0.03,-2.38 -1.94,-3.72 a 0.63,0.62 48 0 1 0.05,-1.06 l 12.61,-7 a 1.35,1.35 0 0 1 1.38,0.04 l 37.67,24.1 a 0.37,0.36 -43.8 0 1 -0.02,0.63 l -9.07,5.26 a 0.74,0.73 47.5 0 1 -0.8,-0.04 l -5.65,-3.97 a 1.17,1.16 47.4 0 0 -1.25,-0.06 l -22.06,12.74 a 0.87,0.86 -15 0 0 -0.44,0.75 z m -0.03,-10.52 a 0.31,0.31 0 0 0 0.46,0.26 l 13.82,-8.07 a 0.31,0.31 0 0 0 0.02,-0.53 l -14.28,-9.54 a 0.31,0.31 0 0 0 -0.48,0.27 z"
       id="path34" />
    <path
       fill="#000000"
       d="m 590.33,179.12 -28.42,6.84 a 0.73,0.73 0 0 1 -0.9,-0.8 l 3.91,-29.95 q 0.12,-0.92 -0.55,-0.27 l -18.3,17.8 a 0.72,0.71 44.1 0 1 -1,0.01 l -7.39,-6.92 a 0.65,0.64 44.1 0 1 -0.02,-0.93 q 13.39,-13.14 24.86,-24.33 1.89,-1.84 2.84,-5.36 a 0.09,0.08 -60 0 1 0.14,-0.04 l 9.97,9.44 a 1.74,1.73 25.2 0 1 0.52,1.43 l -2.96,26.04 a 0.28,0.28 0 0 0 0.34,0.31 l 24.88,-5.37 a 1.93,1.92 -29.4 0 1 1.74,0.48 l 8,7.58 a 0.95,0.95 0 0 1 0.1,1.27 l -24.53,32 a 0.52,0.52 0 0 1 -0.77,0.07 l -7.65,-7.25 a 0.44,0.44 0 0 1 -0.05,-0.59 l 15.59,-20.92 q 0.56,-0.76 -0.35,-0.54 z"
       id="path36" />
    <path
       fill="#000000"
       d="m 273.52,187.71 15.5,-17.01 q 0.28,-0.31 0.57,-0.02 l 5.66,5.7 q 0.36,0.36 0.02,0.73 l -14.96,16.41 q -0.63,0.69 0.05,1.34 l 8.75,8.28 a 0.54,0.53 -46.9 0 1 0.02,0.75 l -7.27,7.69 a 0.41,0.4 43.5 0 1 -0.58,0.01 q -11.82,-11.34 -24.07,-23.16 c -1.67,-1.62 -3.63,-2.7 -5.72,-3.63 a 0.44,0.44 0 0 1 -0.14,-0.7 l 31.38,-33.89 a 0.6,0.59 -46.3 0 1 0.86,-0.02 l 5.45,5.5 q 0.42,0.41 0.02,0.84 l -22.64,24.09 q -0.19,0.21 0.01,0.4 l 6.63,6.7 a 0.33,0.32 43.2 0 0 0.46,-0.01 z"
       id="path37" />
    <path
       fill="#000000"
       d="M 606.47,324.86 A 173.04,173.04 0 0 1 433.43,497.9 173.04,173.04 0 0 1 260.39,324.86 173.04,173.04 0 0 1 433.43,151.82 173.04,173.04 0 0 1 606.47,324.86 Z M 426.99,217.76 q 18.28,0.04 34.21,-0.02 c 3.87,-0.02 6.99,-1.67 8.93,-5.09 3.16,-5.58 7.65,-9.54 14.49,-9.3 q 10.51,0.35 21.43,0.06 5.04,-0.13 8.38,-3.49 c 5.28,-5.33 4.8,-14.78 -2.13,-18.62 -45.51,-25.18 -99.34,-26.42 -147.08,-5.36 q -0.53,0.24 -0.53,0.82 v 127.17 q 0,0.48 0.49,0.48 h 48.42 a 0.41,0.41 0 0 1 0.37,0.59 q -9.34,19.17 -3.04,39.42 a 0.26,0.25 81.4 0 1 -0.24,0.33 l -45.47,-0.01 q -0.53,0 -0.53,0.54 v 128.43 a 0.49,0.49 0 0 0 0.29,0.45 c 37.46,17.08 77.99,19.73 117.58,7.74 q 4.56,-1.38 6.98,-3.57 c 9.18,-8.32 8.58,-23.04 -3.01,-28.54 q -3.54,-1.68 -11.13,-1.54 -5.59,0.11 -11.73,0.13 c -13.87,0.06 -25.25,-5.66 -31.94,-18.12 -4.63,-8.62 -5.01,-19.79 -1.07,-28.72 q 6.43,-14.58 21.77,-19.08 4.68,-1.37 11.98,-1.31 21.7,0.2 43.89,0.01 3.37,-0.03 3.68,-3.39 0.04,-0.46 -0.07,-0.88 -0.66,-2.69 -3.43,-2.72 -20.2,-0.2 -40.46,-0.01 -8.76,0.09 -13.6,-0.76 c -16.37,-2.86 -29.59,-14.48 -35.15,-29.86 -9.24,-25.61 6.15,-53.34 32.08,-59.9 q 6.6,-1.67 19.87,-1.47 13.24,0.19 28.73,0.04 c 8.98,-0.09 11.61,-11.77 3.79,-15.91 q -2.03,-1.08 -6.54,-1.06 -36.33,0.15 -70.06,0.1 -0.76,-0.01 -0.5,-0.71 4.21,-11.48 14.48,-18.68 2.03,-1.42 3.88,-1.41 19.17,0.09 38.7,0.03 3.53,-0.01 3.34,-3.73 -0.02,-0.48 -0.23,-0.96 -1.22,-2.88 -4.35,-2.88 h -38.19 a 3.28,3.28 0 0 1 -1.89,-0.6 q -9.83,-6.97 -15.76,-18.03 -0.33,-0.61 0.37,-0.61 z M 321.4,205.27 c -28.28,26.25 -45.69,60.52 -51.01,98.66 a 0.43,0.42 -85.9 0 0 0.42,0.49 l 52.49,-0.01 q 0.46,0 0.46,-0.46 l 0.01,-99.92 q 0,-0.49 -0.42,-0.23 -1.06,0.64 -1.95,1.47 z m 226.94,159.09 c 4.48,22.77 -7.79,43.12 -29.96,49.52 q -5.49,1.58 -13.6,1.52 -24.75,-0.18 -44.69,0 -3.43,0.04 -3.64,3.46 -0.03,0.46 0.12,0.9 0.88,2.63 3.64,2.66 12.97,0.15 26.89,-0.02 5.75,-0.08 10.05,1.37 c 19.85,6.7 26.26,32.13 10.29,46.77 q -2.14,1.96 0.44,0.64 c 95.71,-48.92 119.83,-174.06 48.67,-255 a 0.37,0.36 -34.5 0 0 -0.45,-0.08 l -0.32,0.18 a 0.56,0.55 -31.1 0 0 -0.2,0.78 q 6.54,10.17 9.22,20.42 c 10.26,39.35 -13.42,77.95 -53.36,85.99 q -6.89,1.38 -19.91,1.22 -15.66,-0.2 -30.01,0.07 -2.67,0.05 -3.44,2.6 -0.16,0.55 -0.07,1.11 0.56,3.18 3.79,3.21 21.37,0.17 42.39,-0.03 8.5,-0.08 14.22,1.42 c 14.92,3.91 26.96,16.2 29.93,31.29 z M 270.43,345.39 c 4.24,35.27 20.18,68.01 44.95,93.53 q 4.72,4.86 7.77,7.56 0.61,0.54 0.61,-0.28 l 0.01,-100.94 q 0,-0.51 -0.51,-0.51 H 271 q -0.65,0 -0.57,0.64 z"
       id="path38" />
    <circle
       fill="#000000"
       cx="447.63"
       cy="178.75999"
       r="4.73"
       id="circle39" />
    <circle
       fill="#000000"
       cx="466.17999"
       cy="178.77"
       r="4.73"
       id="circle40" />
    <circle
       fill="#000000"
       cx="428.57999"
       cy="179.22"
       r="4.6900001"
       id="circle41" />
    <rect
       fill="#000000"
       x="423.87"
       y="189.03999"
       width="47.02"
       height="6.3200002"
       rx="3.0999999"
       id="rect41" />
    <path
       fill="#000000"
       d="m 611.28,223.72 q -0.27,-0.52 -0.78,-0.24 l -5.5,2.97 a 0.59,0.59 0 0 0 -0.25,0.79 l 15.93,30.86 q 0.28,0.55 -0.25,0.86 l -6.34,3.67 q -0.47,0.27 -0.73,-0.21 l -21.28,-40.96 a 0.56,0.56 0 0 1 0.23,-0.75 q 14.7,-7.95 30.23,-16.33 c 1.75,-0.94 3.16,-2.16 4.18,-3.89 a 0.44,0.43 46.2 0 1 0.76,0.02 l 21.14,40.8 a 0.41,0.41 0 0 1 -0.17,0.55 l -7.08,3.8 q -0.43,0.23 -0.66,-0.2 l -15.67,-29.78 q -0.11,-0.21 -0.31,-0.09 l -5.6,3.29 q -0.22,0.13 -0.11,0.35 l 10.37,20.21 q 0.35,0.67 -0.31,1.02 l -6.5,3.51 q -0.73,0.39 -1.11,-0.35 z"
       id="path41" />
    <path
       fill="#000000"
       d="m 410.97,245.87 a 1.61,1.61 0 0 0 -2.27,-1.51 c -1.98,0.88 -3.05,2.74 -4.92,3.51 q -6.52,2.7 -11.37,-1.04 c -5.8,-4.48 -4.2,-13.63 2.5,-15.96 q 6.71,-2.34 11.99,2.91 c 0.97,0.96 1.91,1.17 3.25,0.99 q 0.63,-0.09 0.67,-0.73 c 0.3,-6.53 -0.73,-13.73 -2.51,-19.46 q -0.47,-1.54 -1.51,-2.88 -0.29,-0.37 -0.76,-0.37 -4.75,-0.01 -7.55,-5.73 -0.46,-0.94 0.56,-1.17 11.3,-2.57 16.86,7.38 2.85,5.1 4.97,10.06 4.62,10.82 14.1,17.83 a 0.48,0.47 -45.9 0 1 0.01,0.76 c -7.83,6.13 -13.11,13.46 -16.51,22.49 q -2.22,5.89 -7.52,10.12 -3.96,3.16 -12.21,1.62 -0.67,-0.12 -0.4,-0.74 2.65,-6.14 7.88,-6.29 0.59,-0.02 0.87,-0.54 c 3.18,-6.02 3.69,-14.56 3.87,-21.25 z"
       id="path43" />
    <path
       fill="#000000"
       d="m 252.47,244.46 13.5,-26.96 q 0.12,-0.24 0.36,-0.11 l 6.88,3.99 a 0.31,0.3 29.3 0 1 0.12,0.4 l -18.71,36.87 a 0.69,0.68 27.1 0 1 -0.92,0.29 q -15.96,-8.16 -30.55,-15.78 c -1.57,-0.82 -3.33,-1.18 -5.08,-1.01 q -1.11,0.11 -0.59,-0.87 l 5.46,-10.4 q 0.37,-0.71 1.08,-0.34 l 27.49,14.23 q 0.64,0.33 0.96,-0.31 z"
       id="path45" />
    <path
       fill="#000000"
       d="m 644.6827,326.158 a 28.64,21.66 81.4 0 1 -25.6992,-25.0791 28.64,21.66 81.4 0 1 17.1338,-31.5569 28.64,21.66 81.4 0 1 25.6992,25.0791 28.64,21.66 81.4 0 1 -17.1338,31.5569 z m -0.9582,-11.8401 a 16.85,12.39 78.1 0 0 8.6492,-19.0428 16.85,12.39 78.1 0 0 -15.5982,-13.933 16.85,12.39 78.1 0 0 -8.6492,19.0428 16.85,12.39 78.1 0 0 15.5982,13.933 z"
       id="path46" />
    <path
       fill="#000000"
       d="m 241.34,283.58 -3.93,25.12 a 0.6,0.6 0 0 0 0.23,0.58 l 5.39,4.16 q 1,0.78 0.83,2.03 l -1.14,8.32 q -0.21,1.53 -1.44,0.59 -15.54,-11.95 -31.67,-24.27 c -1.21,-0.92 -2.76,-0.93 -4.17,-0.49 a 0.5,0.49 85.9 0 1 -0.63,-0.55 l 2.36,-14.64 a 1.04,1.04 0 0 1 0.7,-0.82 l 41.35,-13.77 q 1.55,-0.52 1.32,1.11 l -1.21,8.43 q -0.14,0.98 -1.08,1.29 l -6.14,2.01 q -0.66,0.22 -0.77,0.9 z m -12.31,18.87 a 0.33,0.33 0 0 0 0.52,-0.21 l 2.35,-15.61 a 0.33,0.33 0 0 0 -0.43,-0.37 l -16.12,5.18 a 0.33,0.33 0 0 0 -0.09,0.57 z"
       id="path47" />
  </g>
</svg>
