<?xml version="1.0" encoding="UTF-8" standalone="no"?>
<svg
   version="1.1"
   viewBox="0.00 0.00 2051.00 1022.00"
   id="svg6"
   sodipodi:docname="alphatauri.svg"
   inkscape:version="1.3 (0e150ed6c4, 2023-07-21)"
   xmlns:inkscape="http://www.inkscape.org/namespaces/inkscape"
   xmlns:sodipodi="http://sodipodi.sourceforge.net/DTD/sodipodi-0.dtd"
   xmlns="http://www.w3.org/2000/svg"
   xmlns:svg="http://www.w3.org/2000/svg">
  <defs
     id="defs6" />
  <sodipodi:namedview
     id="namedview6"
     pagecolor="#ffffff"
     bordercolor="#000000"
     borderopacity="0.25"
     inkscape:showpageshadow="2"
     inkscape:pageopacity="0.0"
     inkscape:pagecheckerboard="0"
     inkscape:deskcolor="#d1d1d1"
     inkscape:zoom="0.20624086"
     inkscape:cx="1025.5"
     inkscape:cy="511.53783"
     inkscape:window-width="1366"
     inkscape:window-height="705"
     inkscape:window-x="-8"
     inkscape:window-y="-8"
     inkscape:window-maximized="1"
     inkscape:current-layer="svg6" />
  <path
     fill="#002841"
     d="   M 497.86 0.00   L 519.81 0.00   Q 677.84 4.62 805.97 96.10   Q 806.51 96.49 806.04 96.96   Q 686.28 215.06 647.16 377.74   Q 647.02 378.32 646.61 377.89   Q 610.62 340.52 562.66 326.32   C 507.42 309.97 447.74 319.42 400.22 352.52   C 330.85 400.83 301.29 489.10 328.56 569.47   C 355.75 649.60 433.01 702.52 517.75 698.40   C 612.94 693.78 689.27 619.62 697.93 525.68   Q 698.69 517.41 698.80 505.56   Q 700.10 362.35 775.41 240.39   Q 780.51 232.13 786.22 223.77   Q 857.55 119.46 968.80 59.52   C 1033.98 24.40 1107.06 4.78 1181.26 0.88   Q 1190.06 0.41 1198.87 0.00   L 1210.33 0.00   L 1210.27 310.74   Q 1210.27 311.21 1209.92 311.51   Q 1206.87 314.10 1203.40 315.38   C 1197.47 317.58 1191.34 319.01 1185.00 319.79   C 1127.30 326.89 1076.32 359.42 1045.84 408.58   Q 1019.39 451.24 1017.64 501.02   Q 1017.29 511.08 1017.07 520.52   Q 1014.33 640.49 957.61 747.52   Q 952.62 756.94 947.79 765.05   Q 884.24 871.89 781.75 937.37   Q 669.57 1009.03 534.00 1016.59   Q 524.04 1017.14 513.90 1017.18   Q 388.67 1017.71 280.46 962.95   C 196.02 920.22 123.74 854.57 74.07 772.63   Q 3.55 656.28 0.00 518.96   L 0.00 497.97   Q 2.52 392.85 44.54 300.30   Q 103.30 170.86 221.27 89.15   Q 229.55 83.41 237.96 78.14   Q 356.56 3.84 497.86 0.00   Z"
     id="path1"
     style="fill:#000000;fill-opacity:1" />
  <path
     fill="#002841"
     d="   M 1271.69 0.00   L 2051.00 0.00   L 2051.00 0.56   Q 2050.95 0.55 2050.90 0.55   Q 2050.81 0.53 2050.77 0.63   Q 1991.86 164.19 1932.95 327.74   A 0.75 0.74 -79.9 0 1 1932.25 328.23   L 1782.28 328.23   Q 1781.82 328.23 1781.82 328.69   Q 1781.78 420.81 1781.83 514.34   Q 1781.84 524.26 1781.56 533.49   Q 1778.07 652.05 1722.49 754.87   Q 1660.77 869.05 1549.54 940.26   Q 1541.38 945.48 1532.49 950.57   Q 1412.27 1019.37 1272.16 1016.97   Q 1271.67 1016.97 1271.67 1016.48   L 1271.67 867.97   A 0.72 0.72 0.0 0 1 1272.10 867.31   Q 1277.38 864.94 1282.81 862.61   Q 1293.27 858.11 1299.96 847.31   C 1304.70 839.66 1312.28 837.10 1320.97 837.23   C 1325.96 837.30 1332.52 837.03 1335.20 832.17   Q 1337.28 828.41 1338.21 822.83   Q 1341.46 803.41 1345.07 784.40   Q 1346.77 775.48 1344.09 766.54   Q 1342.67 761.81 1337.19 753.23   Q 1321.68 728.98 1308.52 709.29   Q 1306.70 706.57 1304.43 704.28   C 1298.68 698.49 1292.80 703.41 1288.22 707.48   Q 1287.79 707.86 1288.07 708.36   C 1292.35 715.90 1295.83 723.51 1301.09 730.58   Q 1311.65 744.80 1320.22 757.74   Q 1322.81 761.66 1323.66 766.42   C 1326.47 782.29 1323.70 798.37 1315.96 812.46   Q 1315.31 813.65 1311.08 816.01   Q 1310.60 816.28 1310.29 815.83   Q 1308.24 812.86 1307.65 810.12   Q 1306.68 805.64 1306.70 800.76   C 1306.74 788.02 1303.11 775.74 1295.61 766.09   Q 1276.51 741.51 1264.15 723.90   Q 1249.90 703.59 1267.69 685.77   Q 1273.88 679.57 1283.01 671.53   C 1294.10 661.77 1299.15 648.16 1303.06 633.19   Q 1308.18 613.63 1308.81 590.36   Q 1308.98 584.18 1309.15 561.41   Q 1309.18 557.84 1311.91 554.34   C 1315.27 550.04 1321.40 549.18 1324.77 553.86   C 1328.57 559.12 1329.70 566.10 1330.79 572.37   Q 1334.04 591.23 1332.92 605.24   Q 1330.26 638.28 1318.47 673.62   Q 1317.50 676.51 1317.91 679.48   Q 1317.98 679.99 1318.50 680.04   Q 1323.69 680.51 1328.22 679.80   Q 1336.34 678.54 1344.10 677.51   C 1361.94 675.14 1377.83 668.71 1390.62 655.89   Q 1401.10 645.40 1412.60 635.06   C 1415.61 632.35 1419.87 632.31 1422.78 635.24   Q 1425.68 638.16 1424.49 643.23   C 1421.58 655.72 1414.98 667.25 1408.11 677.92   Q 1394.48 699.09 1387.37 717.17   Q 1381.69 731.61 1375.82 746.51   Q 1373.58 752.19 1372.67 756.86   Q 1371.30 763.87 1378.48 763.75   C 1385.44 763.63 1393.45 760.66 1393.62 771.52   Q 1393.76 779.84 1393.81 787.51   Q 1393.92 801.74 1405.85 809.11   Q 1413.62 813.91 1422.25 812.35   Q 1426.10 811.66 1431.65 809.11   Q 1442.77 804.01 1448.98 800.03   Q 1457.16 794.79 1463.67 791.02   C 1479.28 781.99 1496.52 779.11 1514.97 779.80   C 1525.23 780.18 1534.46 777.53 1540.81 770.33   C 1545.89 764.58 1550.96 758.46 1557.06 753.88   C 1562.08 750.11 1567.82 749.98 1573.04 753.17   Q 1582.30 758.84 1594.62 767.65   Q 1612.97 780.78 1630.73 787.23   C 1639.99 790.60 1653.12 793.34 1661.99 789.52   Q 1662.73 789.20 1662.12 788.66   C 1660.11 786.89 1658.26 784.90 1656.09 783.31   C 1650.74 779.37 1645.35 775.66 1640.29 771.18   Q 1625.81 758.35 1615.10 744.43   Q 1606.63 733.42 1598.15 722.21   Q 1591.79 713.80 1588.11 707.65   C 1586.13 704.34 1583.71 696.48 1586.92 693.01   C 1591.77 687.74 1600.07 693.58 1604.11 697.30   Q 1626.95 718.29 1646.02 738.34   C 1654.94 747.72 1665.86 755.25 1678.78 757.43   Q 1687.21 758.85 1698.84 754.05   Q 1699.41 753.81 1699.14 753.25   Q 1698.32 751.59 1696.19 750.56   Q 1666.44 736.17 1644.62 711.47   C 1619.47 682.98 1601.78 645.52 1589.13 609.34   Q 1571.57 559.07 1553.87 511.45   C 1549.48 499.64 1545.25 488.81 1538.59 478.03   Q 1518.75 445.96 1488.69 422.52   Q 1462.82 402.35 1435.45 386.88   Q 1399.17 366.37 1374.37 353.70   C 1349.34 340.93 1324.85 328.26 1301.58 313.38   C 1292.24 307.41 1282.70 303.20 1272.02 301.62   Q 1271.71 301.57 1271.71 301.26   L 1271.69 0.00   Z"
     id="path2"
     style="fill:#000000;fill-opacity:1" />
  <path
     fill="#002841"
     d="   M 1286.32 382.26   C 1292.55 383.03 1300.19 386.95 1305.60 390.68   Q 1324.56 403.76 1337.40 421.57   C 1344.59 431.54 1350.06 441.33 1351.92 453.59   C 1352.67 458.54 1352.66 467.95 1345.29 467.23   Q 1342.08 466.91 1340.08 463.64   C 1330.68 448.20 1318.16 435.50 1303.52 424.76   Q 1294.01 417.78 1284.48 410.90   Q 1278.91 406.88 1275.08 402.48   C 1267.08 393.28 1274.67 380.82 1286.32 382.26   Z"
     id="path3"
     style="fill:#000000;fill-opacity:1" />
  <path
     fill="#002841"
     d="   M 1479.01 601.66   C 1475.62 600.64 1472.34 602.52 1470.43 605.23   Q 1467.67 609.15 1464.80 613.29   Q 1461.31 618.34 1455.27 617.46   C 1437.06 614.78 1455.74 579.54 1460.32 572.14   C 1464.76 564.93 1473.50 552.23 1483.04 561.97   Q 1502.91 582.24 1519.04 595.37   Q 1525.69 600.78 1529.68 605.96   C 1535.34 613.33 1538.41 622.35 1540.49 631.56   C 1541.75 637.13 1543.89 646.14 1539.87 651.07   C 1537.33 654.17 1530.06 655.11 1527.50 650.88   C 1523.69 644.61 1522.28 637.71 1518.62 631.65   Q 1514.98 625.63 1510.32 621.79   Q 1503.51 616.19 1491.41 607.64   C 1487.48 604.86 1483.49 603.01 1479.01 601.66   Z"
     id="path4"
     style="fill:#000000;fill-opacity:1" />
  <path
     fill="#002841"
     d="   M 1120.64 819.99   A 0.48 0.46 50.1 0 0 1120.60 820.53   Q 1130.11 837.22 1141.70 850.08   C 1145.76 854.59 1151.10 856.15 1157.06 855.68   C 1162.71 855.24 1166.74 855.49 1169.40 861.18   C 1176.34 876.04 1187.14 904.31 1209.45 896.70   Q 1210.26 896.43 1210.26 897.29   L 1210.26 1016.48   Q 1210.26 1017.03 1209.71 1017.03   C 1101.05 1017.17 997.95 984.08 909.98 920.87   A 0.41 0.40 41.2 0 1 909.93 920.25   C 940.70 891.21 967.80 857.91 991.33 822.61   Q 1014.08 788.47 1030.82 752.55   Q 1031.04 752.08 1031.56 752.09   Q 1068.58 753.06 1108.56 748.08   Q 1117.24 747.00 1143.52 746.22   Q 1147.28 746.11 1151.18 744.33   Q 1160.58 740.04 1159.22 730.50   C 1158.13 722.89 1154.80 714.64 1151.81 707.16   C 1150.17 703.05 1150.49 698.80 1154.81 696.77   C 1161.57 693.59 1164.41 699.57 1167.00 705.21   Q 1171.07 714.04 1174.67 722.50   Q 1175.13 723.59 1177.75 727.26   Q 1188.77 742.69 1205.87 751.45   C 1210.84 754.00 1217.01 756.02 1222.47 758.51   Q 1250.50 771.30 1267.47 796.70   C 1273.11 805.15 1272.99 812.22 1266.93 820.39   Q 1248.96 844.65 1221.90 850.77   C 1212.19 852.97 1201.43 853.65 1193.71 846.02   Q 1190.48 842.82 1186.94 835.58   Q 1183.77 829.10 1179.16 821.44   C 1175.08 814.66 1170.05 809.36 1161.56 810.54   Q 1149.12 812.25 1128.30 815.90   C 1125.21 816.44 1122.62 817.56 1120.64 819.99   Z   M 1197.81 796.90   C 1198.15 804.58 1200.84 812.38 1204.93 821.02   C 1206.90 825.19 1209.39 828.58 1214.46 828.63   C 1224.44 828.71 1237.83 823.79 1237.87 811.47   C 1237.89 803.94 1234.37 797.55 1229.17 791.99   Q 1228.64 791.43 1227.88 791.48   Q 1213.02 792.49 1198.31 796.23   Q 1197.79 796.36 1197.81 796.90   Z"
     id="path5"
     style="fill:#000000;fill-opacity:1" />
  <path
     fill="#002841"
     d="   M 1501.87 745.93   C 1499.34 752.64 1493.27 755.41 1486.46 756.77   C 1481.04 757.86 1470.92 758.32 1469.50 751.44   C 1465.71 733.19 1478.17 722.83 1494.29 719.11   C 1499.04 718.01 1502.68 721.26 1503.28 725.83   Q 1504.86 737.97 1501.87 745.93   Z"
     id="path6"
     style="fill:#000000;fill-opacity:1" />
</svg>
