<?xml version="1.0" encoding="UTF-8" standalone="no"?>
<svg
   version="1.1"
   viewBox="0 0 1696 903"
   id="svg1"
   sodipodi:docname="alpine.svg"
   inkscape:version="1.3 (0e150ed6c4, 2023-07-21)"
   width="1696"
   height="903"
   xmlns:inkscape="http://www.inkscape.org/namespaces/inkscape"
   xmlns:sodipodi="http://sodipodi.sourceforge.net/DTD/sodipodi-0.dtd"
   xmlns="http://www.w3.org/2000/svg"
   xmlns:svg="http://www.w3.org/2000/svg">
  <defs
     id="defs1" />
  <sodipodi:namedview
     id="namedview1"
     pagecolor="#ffffff"
     bordercolor="#000000"
     borderopacity="0.25"
     inkscape:showpageshadow="2"
     inkscape:pageopacity="0.0"
     inkscape:pagecheckerboard="0"
     inkscape:deskcolor="#d1d1d1"
     inkscape:zoom="0.1687006"
     inkscape:cx="856.54703"
     inkscape:cy="1087.7258"
     inkscape:window-width="1366"
     inkscape:window-height="705"
     inkscape:window-x="-8"
     inkscape:window-y="-8"
     inkscape:window-maximized="1"
     inkscape:current-layer="svg1" />
  <path
     fill="#006fba"
     d="m 542.31988,687.90515 q 1.16392,-0.98015 -0.3553,-0.98015 H 13.260872 q -1.016898,0 -0.183772,-0.57584 L 489.31842,354.48354 q 1.28644,-0.89439 0.61258,0.51458 L 385.43506,575.18821 q -0.29405,0.62484 0.39205,0.62484 l 292.47595,0.0122 a 2.0950648,2.0950648 0 0 0 1.35995,-0.50233 L 1358.1332,7.4378993 q 0.6126,-0.5145668 1.4212,-0.5145668 h 165.7429 q 0.7963,0 0.5391,0.7473529 L 1331.1057,575.00444 q -0.2818,0.80862 0.5758,0.80862 h 350.6599 a 0.89438441,0.89438441 0 0 1 0.8821,0.73511 q 0.3799,1.9848 -1.1761,3.27124 -64.3345,53.43029 -128.5831,106.84831 a 1.1149176,1.0904139 24.6 0 1 -0.7106,0.25729 h -260.6946 q -0.7842,0 -1.0415,0.74736 l -70.5216,207.90148 q -0.147,0.41659 -0.5881,0.41659 l -172.1261,0.0118 a 0.47782181,0.47782181 0 0 1 -0.4534,-0.63706 l 72.3104,-207.69325 q 0.2696,-0.74737 -0.5268,-0.74737 H 749.25345 a 1.3599544,1.3967099 24.8 0 0 -0.9066,0.34306 L 508.55381,895.46363 a 2.2053314,2.2175832 24.8 0 1 -1.44572,0.53904 q -105.35358,-0.0976 -211.02572,0.074 -0.7351,0 -1.40895,-0.14702 -0.98016,-0.22057 -0.20828,-0.86995 z M 1277.7243,230.38464 a 0.36755524,0.36755524 0 0 0 -0.588,-0.39205 L 879.44147,575.16371 a 0.36755524,0.36755524 0 0 0 0.2329,0.64934 h 277.63893 a 0.36755524,0.36755524 0 0 0 0.3429,-0.24504 z"
     id="path1"
     style="fill:#000000;fill-opacity:1;stroke-width:1.22519" />
</svg>
