<?xml version="1.0" encoding="UTF-8" standalone="no"?>
<svg
   version="1.1"
   viewBox="0 0 820 220"
   id="svg75"
   sodipodi:docname="aston-martin.svg"
   width="820"
   height="220"
   inkscape:version="1.3 (0e150ed6c4, 2023-07-21)"
   xmlns:inkscape="http://www.inkscape.org/namespaces/inkscape"
   xmlns:sodipodi="http://sodipodi.sourceforge.net/DTD/sodipodi-0.dtd"
   xmlns="http://www.w3.org/2000/svg"
   xmlns:svg="http://www.w3.org/2000/svg">
  <defs
     id="defs75" />
  <sodipodi:namedview
     id="namedview75"
     pagecolor="#ffffff"
     bordercolor="#000000"
     borderopacity="0.25"
     inkscape:showpageshadow="2"
     inkscape:pageopacity="0.0"
     inkscape:pagecheckerboard="0"
     inkscape:deskcolor="#d1d1d1"
     inkscape:zoom="0.34538819"
     inkscape:cx="534.18156"
     inkscape:cy="490.75217"
     inkscape:window-width="1366"
     inkscape:window-height="705"
     inkscape:window-x="-8"
     inkscape:window-y="-8"
     inkscape:window-maximized="1"
     inkscape:current-layer="svg75" />
  <g
     id="g75"
     transform="translate(-26.094163,-236.7317)">
    <path
       fill="#010101"
       d="m 84.546093,320.03002 c -1.84648,-3.4986 -4.6648,-5.61504 -8.58453,-6.11175 -4.481233,-0.56151 -8.303778,-3.33663 -10.636178,-7.20237 q -3.876536,-6.4357 -7.385935,-12.50426 c -0.734274,-1.27418 -2.019254,-2.10563 -3.466206,-2.42958 -5.280295,-1.19859 -8.897675,-1.93287 -11.759185,-6.65166 q -3.369023,-5.56105 -6.435698,-11.14369 c -4.78358,-8.68171 0.399532,-18.20568 10.463408,-18.21648 q 161.983041,-0.0324 320.867021,-0.0648 10.39862,-0.0108 14.43713,1.52254 8.7789,3.33663 14.15637,11.14369 c 2.21363,3.19625 3.67138,7.26716 6.70566,9.66435 3.58498,2.83991 7.12677,2.54836 11.662,2.59155 q 23.87471,0.20517 46.84237,-0.0432 7.20237,-0.0864 10.19346,-5.76621 c 6.03616,-11.47844 14.41553,-19.08033 27.9888,-19.08033 q 150.43983,0 325.0891,0 8.40097,0 11.98595,6.88922 c 2.07325,4.00611 0.76667,8.85448 -1.46855,12.67702 q -3.04508,5.20471 -5.73381,9.75073 c -2.87231,4.83757 -7.0404,5.50706 -11.94276,6.82443 q -2.3108,0.6263 -3.70376,2.98029 -3.21785,5.46387 -6.38171,10.84135 -4.60001,7.83945 -13.65966,8.54133 -2.37559,0.18357 -4.78358,3.89814 -2.79672,4.28686 -5.19391,8.06621 -4.17889,6.56528 -10.5066,10.39862 -3.57419,2.15963 -11.6836,4.50283 -57.99686,16.80192 -114.53598,33.2583 -6.12255,1.7817 -10.67937,4.21128 c -5.03193,2.68874 -8.33617,7.18077 -11.47843,11.85637 -5.31269,7.90425 -13.56248,12.89299 -22.94607,15.40896 q -51.85272,13.94041 -114.55757,30.9475 c -9.05965,2.45118 -18.1301,-0.28075 -25.01932,-6.80284 q -11.0573,-10.4742 -21.76907,-20.46249 -4.52442,-4.22208 -9.22162,0.0972 -10.84134,9.97749 -20.45169,19.31789 c -8.24979,8.00143 -15.7869,10.64698 -27.20054,7.56951 q -61.46307,-16.61836 -114.70875,-30.9799 c -8.56293,-2.3108 -17.08267,-8.02302 -22.34137,-15.7653 -1.65212,-2.41878 -3.43381,-5.17231 -5.59344,-7.08358 q -6.03617,-5.35588 -14.24276,-7.73148 -55.90203,-16.19722 -116.95477,-33.92779 -7.08358,-2.06244 -10.970917,-4.28686 c -6.50048,-3.71456 -10.88453,-9.99909 -14.39393,-16.70474 z M 395.25206,281.6534 c -4.75119,-8.68172 -10.38782,-17.86014 -21.5963,-17.86014 q -163.32202,-0.0108 -327.356715,0 -2.796721,0 -3.649775,2.56996 -0.475119,1.41455 0.345541,3.00188 2.699537,5.2695 5.463864,9.30801 2.386391,3.4878 6.65166,3.4878 169.574145,0.0216 339.817775,0.0216 0.6047,0 0.32395,-0.52911 z m 102.96036,-17.79535 c -7.05119,0 -13.65966,5.31268 -16.9639,11.12209 -1.24178,2.17043 -2.62395,4.42724 -3.98451,6.53288 q -0.44273,0.66949 0.35634,0.66949 169.77931,0 339.64501,-0.0108 4.54602,0 6.9864,-3.76856 c 1.55493,-2.38639 7.86105,-10.99251 4.72959,-13.50848 q -1.38216,-1.11221 -2.9047,-1.11221 -152.48068,-0.0432 -327.86423,0.0756 z m 116.84678,24.83574 a 0.3239445,0.3239445 0 0 0 -0.32395,-0.32394 H 257.40287 a 0.3239445,0.3239445 0 0 0 -0.32394,0.32394 v 55.91282 a 0.3239445,0.3239445 0 0 0 0.32394,0.32395 h 357.33238 a 0.3239445,0.3239445 0 0 0 0.32395,-0.32395 z m 188.80565,6.51128 q 1.55494,-2.94789 3.54179,-5.63663 a 0.24835745,0.24835745 0 0 0 -0.20516,-0.39953 l -185.37184,-0.0108 q -0.25916,0 -0.25916,0.25916 l 0.14038,6.23053 q 0,0.17277 0.17277,0.17277 80.46781,4.654 168.14879,9.9019 c 8.46575,0.50752 10.4958,-4.21128 13.83243,-10.5174 z M 65.152615,289.93558 c 3.045078,4.36245 4.988745,9.9127 8.649318,13.59487 3.05588,3.07747 8.45495,2.53756 12.40707,2.3108 q 80.338237,-4.6756 164.488217,-9.65354 0.15118,-0.0108 0.16198,-0.16198 l 0.0324,-6.29532 q 0.0108,-0.28075 -0.26995,-0.28075 H 65.41177 a 0.31314635,0.31314635 0 0 0 -0.259155,0.48592 z m 31.422618,33.59304 c 4.373247,5.8742 12.990167,4.1033 19.145117,3.42302 q 67.36966,-7.52632 134.99847,-15.30098 0.17277,-0.0108 0.17277,-0.19437 l -0.0216,-7.74227 q 0,-0.23756 -0.24835,-0.22676 l -160.104167,9.41598 q -0.41033,0.0216 -0.22677,0.38874 2.72114,5.44226 6.28453,10.23664 z M 621.4625,311.67225 q 71.57014,8.14181 139.83604,15.83009 4.41645,0.49672 8.22819,-0.19437 c 5.90659,-1.06901 9.63195,-9.09204 12.39628,-13.90801 q 0.24836,-0.44273 -0.25915,-0.47512 L 621.4949,303.45486 q -0.21597,-0.0108 -0.21597,0.20517 l -0.0216,7.78546 q 0,0.20517 0.20516,0.22676 z m -503.45294,23.20523 c 8.86528,2.48357 16.59675,4.89156 24.91133,7.16997 8.80049,2.41878 17.17985,0.96103 26.28269,-0.5723 q 40.82781,-6.87842 81.41806,-13.47609 0.25915,-0.0432 0.25915,-0.31315 l -0.0108,-8.10941 q 0,-0.22676 -0.22676,-0.20517 l -132.57968,14.84746 q -1.72771,0.18357 -0.054,0.65869 z m 609.9011,7.61269 c 8.63852,-2.22442 17.35263,-5.02114 26.14233,-7.32114 q 2.80751,-0.73428 -0.0756,-1.05822 L 622.28316,319.36054 a 0.1943667,0.1943667 0 0 0 -0.21596,0.18356 l -0.054,8.185 q -0.0108,0.17277 0.16197,0.20517 45.75176,7.5803 90.32652,14.86905 8.68172,1.41456 15.40896,-0.31315 z m -559.44135,6.97561 c 6.93241,2.03005 13.86483,4.17888 20.79724,6.17654 8.19579,2.36479 15.60332,1.94367 23.56156,0 q 19.92259,-4.84837 37.75033,-9.58876 0.31315,-0.0864 0.31315,-0.41033 l -0.0108,-10.18265 a 0.20516485,0.215963 85 0 0 -0.24836,-0.20517 l -82.13072,13.67046 q -1.1986,0.19437 -0.0324,0.53991 z m 452.9716,-3.40142 q 18.42164,4.76199 37.19962,9.57796 12.61224,3.23945 23.38879,0.18357 10.5066,-2.98029 21.39114,-6.27373 1.42536,-0.43192 -0.0432,-0.66948 l -81.86078,-13.62727 q -0.24836,-0.0432 -0.24836,0.20517 l -0.0108,10.35542 q 0,0.19437 0.18357,0.24836 z m -356.0798,24.86814 c -5.57184,2.65635 -11.50003,5.10753 -17.5146,6.45729 a 0.2807519,0.2807519 0 0 0 -0.14037,0.46432 q 3.57418,3.91973 6.42489,8.13101 c 7.86106,11.6728 20.31132,5.57185 29.09022,-0.70188 q 23.9179,-17.08267 46.39965,-33.59304 0.89625,-0.65869 -0.21596,-0.65869 l -22.87048,0.0108 a 6.9324123,6.9324123 0 0 0 -3.27184,0.82066 q -18.88597,10.04228 -37.90151,19.06953 z m 24.25265,19.08033 c -4.64321,3.26104 -9.52397,6.59767 -14.68549,8.22819 q -1.01502,0.32395 0.0108,0.6155 11.25167,3.21785 22.7625,6.29532 11.79158,3.15306 20.23573,-5.30189 23.04326,-23.09725 46.03252,-48.32173 0.44272,-0.48591 -0.20517,-0.48591 l -19.42587,-0.0216 a 3.4770043,3.4662062 26.4 0 0 -2.09484,0.70188 q -25.98035,19.55545 -52.63018,38.29024 z m 74.34526,11.16529 c 10.13946,-16.62915 19.78221,-32.88037 29.61932,-49.31515 a 0.52910935,0.52910935 0 0 0 -0.45352,-0.79907 l -17.80615,-0.0324 a 1.6953096,1.7061077 21.5 0 0 -1.25258,0.55071 q -25.30007,27.3841 -50.7837,53.46164 c -1.99766,2.04085 -4.24368,3.58498 -6.68406,4.99954 a 0.22676115,0.22676115 0 0 0 0.054,0.42113 q 8.48735,2.25681 16.9747,4.6648 8.1202,2.3 12.99017,1.42535 c 8.51974,-1.53333 13.09816,-8.41175 17.34183,-15.37656 z m 40.8494,-2.53757 q 7.89345,-24.27424 15.10661,-46.88556 0.23756,-0.73428 -0.53991,-0.73428 l -16.28361,0.0108 a 1.0366224,1.0474206 15 0 0 -0.90704,0.52911 q -17.80615,30.61275 -35.20197,58.41799 -4.0709,6.48969 -10.12866,10.44181 a 0.42112785,0.42112785 0 0 0 0.12957,0.76667 q 9.22162,2.37559 19.35029,5.38828 c 9.53476,2.83991 17.21225,2.17043 21.31555,-7.99063 q 3.41221,-8.43336 7.15917,-19.94419 z m 192.55261,-0.5507 c -5.88499,-2.25682 -11.33806,-5.78781 -17.36342,-10.08547 q -24.67378,-17.57939 -50.02783,-36.46536 a 2.5051708,2.4727764 62.7 0 0 -1.52254,-0.49671 l -19.46907,0.0324 a 0.42112785,0.4103297 68.5 0 0 -0.30235,0.70188 q 21.81227,23.61556 43.10622,45.36303 c 6.03617,6.16574 12.8606,10.66857 21.63949,8.31458 q 12.09393,-3.26105 23.89631,-6.48969 1.34977,-0.37794 0.0432,-0.87465 z m 9.77233,-35.34235 c 6.50048,3.21785 17.61178,8.7681 24.36062,7.31035 q 12.05074,-2.61315 25.50523,-7.09438 0.88545,-0.29155 -0.0216,-0.51832 -20.20334,-4.98874 -41.17335,-10.32303 -4.50283,-1.1446 -8.82209,-1.123 -10.84134,0.0756 -21.53151,0.0864 -1.7277,0 -0.18357,0.77747 10.58219,5.31269 21.86626,10.88453 z m -125.05338,-5.17231 q 16.56436,27.82683 29.54374,48.77524 c 4.91316,7.91505 12.63384,12.45027 22.1794,10.07468 q 10.65777,-2.64555 21.87705,-5.58265 a 0.31314635,0.31314635 0 0 0 0.0972,-0.5615 q -5.03194,-3.26104 -8.8005,-7.20237 -23.04325,-24.07987 -48.4297,-51.10764 -0.50751,-0.53991 -1.24179,-0.53991 l -18.24887,-0.0216 q -0.47512,0 -0.24836,0.41032 1.56573,2.88311 3.27184,5.75542 z m 108.60779,29.02543 c 4.34086,3.05587 9.23242,5.58264 14.6315,6.18734 11.31646,1.25258 13.04416,-8.33618 19.30709,-14.6207 a 0.2807519,0.2807519 0 0 0 -0.14038,-0.47512 q -6.92161,-1.59812 -14.28595,-5.15072 -20.55968,-9.93429 -41.27053,-20.45169 a 6.0793585,5.9605788 57.8 0 0 -2.71033,-0.64789 l -22.74091,-0.0108 q -1.46855,0 -0.29155,0.87465 24.06908,17.86014 47.50106,34.29493 z m -339.699,-17.32024 c 12.06154,-4.55682 24.12307,-11.0465 35.93625,-16.9099 q 1.78169,-0.88545 -0.20517,-0.87465 -9.77232,0.0864 -21.48832,-0.0432 -3.91973,-0.0432 -7.37513,0.80986 -23.16204,5.75541 -41.88603,10.53899 -1.31737,0.34554 -0.0108,0.73428 10.29064,3.10986 22.09302,6.14415 c 4.23287,1.09061 8.88688,1.1338 12.93618,-0.39954 z m 156.72435,45.21186 c -1.20939,3.62818 -2.79672,7.08358 -4.41644,10.57139 q -0.76667,1.65211 0.5507,0.38873 11.27327,-10.74416 23.09725,-21.70428 c 7.69908,-7.12678 15.139,-3.84414 21.69348,2.354 q 9.62115,9.10284 19.81461,18.85356 0.96103,0.91785 0.41033,-0.29155 -3.27184,-7.21316 -6.37091,-16.75872 -8.88688,-27.35172 -18.05451,-56.01001 a 0.5399075,0.5399075 0 0 0 -0.51831,-0.37793 l -15.12821,0.0108 q -0.71268,0 -0.92864,0.68029 -10.06388,32.23248 -20.14935,62.28373 z m 64.09782,-2.15963 c 2.23522,6.85682 5.37748,14.80426 13.18454,15.94887 q 3.25024,0.46432 9.362,-1.2202 11.47843,-3.16385 20.92681,-5.57184 0.72348,-0.18357 0.10798,-0.6047 -6.34931,-4.40564 -10.53899,-11.14369 -17.93573,-28.76627 -34.84563,-57.66212 -0.33474,-0.5615 -0.98263,-0.5615 h -15.95967 q -0.95023,0 -0.65868,0.89624 9.80472,30.42919 19.40427,59.91894 z"
       id="path40"
       style="stroke-width:1.07982" />
    <path
       fill="#010101"
       d="m 306.35089,306.82388 c -0.89625,2.354 1.11221,4.29767 3.05587,5.34509 3.30424,1.77089 7.12678,3.20705 9.83712,5.64743 4.60001,4.14649 4.14649,11.84557 -1.70611,14.83666 -5.18311,2.65634 -10.04228,1.90047 -15.12821,-0.24836 q -1.19859,-0.50751 -1.30657,-1.81409 l -0.30235,-3.63897 q -0.11878,-1.52254 1.06902,-0.56151 5.02114,4.04931 10.74416,3.20705 c 5.52865,-0.80986 4.76198,-6.19814 0.5399,-8.23899 -4.51362,-2.18122 -9.3296,-3.42301 -11.87796,-8.42255 -2.89391,-5.66903 1.1446,-12.23431 7.38593,-13.05497 q 4.85917,-0.63709 9.72914,0.78827 a 1.4253558,1.436154 5.2 0 1 1.01502,1.23099 l 0.35634,3.77935 q 0.10798,1.177 -0.89625,0.5615 c -3.37982,-2.09484 -10.73336,-4.14649 -12.51505,0.5831 z"
       id="path46"
       style="stroke-width:1.07982" />
    <path
       fill="#010101"
       d="m 339.00449,304.65346 0.0432,27.71885 a 0.55070565,0.55070565 0 0 1 -0.55071,0.5507 l -5.46386,-0.0432 a 0.55070565,0.55070565 0 0 1 -0.55071,-0.55071 l 0.0216,-27.62166 a 0.55070565,0.55070565 0 0 0 -0.5939,-0.55071 l -8.66012,0.68028 a 0.55070565,0.55070565 0 0 1 -0.5939,-0.59389 l 0.31315,-3.76856 a 0.55070565,0.55070565 0 0 1 0.55071,-0.50751 l 24.4902,-0.0324 a 0.55070565,0.55070565 0 0 1 0.55071,0.51832 l 0.24835,3.76855 a 0.55070565,0.55070565 0 0 1 -0.59389,0.5831 l -8.61693,-0.70188 a 0.55070565,0.55070565 0 0 0 -0.5939,0.55071 z"
       id="path47"
       style="stroke-width:1.07982" />
    <path
       fill="#010101"
       d="m 381.87185,318.75616 a 14.987832,14.987832 0 0 1 -14.90911,15.06612 l -2.8939,0.0151 a 14.987832,14.987832 0 0 1 -15.06612,-14.90911 l -0.0194,-3.71457 a 14.987832,14.987832 0 0 1 14.90911,-15.06612 l 2.89391,-0.0151 a 14.987832,14.987832 0 0 1 15.06612,14.90911 z m -16.2484,11.19639 a 13.378908,9.8911054 89.3 0 0 9.72686,-13.49877 13.378908,9.8911054 89.3 0 0 -10.05383,-13.2571 13.378908,9.8911054 89.3 0 0 -9.72687,13.49876 13.378908,9.8911054 89.3 0 0 10.05384,13.25711 z"
       id="path48"
       style="stroke-width:1.07982" />
    <path
       fill="#010101"
       d="m 547.22522,304.71824 v 27.62167 a 0.55070565,0.55070565 0 0 1 -0.55071,0.55071 l -5.40987,0.0216 a 0.55070565,0.55070565 0 0 1 -0.5507,-0.5507 l 0.0108,-27.66486 a 0.55070565,0.55070565 0 0 0 -0.5939,-0.55072 l -8.64932,0.74508 a 0.55070565,0.55070565 0 0 1 -0.5939,-0.5939 l 0.30235,-3.82255 a 0.55070565,0.55070565 0 0 1 0.5507,-0.50751 l 24.40382,-0.0108 a 0.55070565,0.55070565 0 0 1 0.55071,0.49672 l 0.37793,3.75775 a 0.55070565,0.55070565 0 0 1 -0.5939,0.6047 l -8.66011,-0.64789 a 0.55070565,0.55070565 0 0 0 -0.5939,0.5507 z"
       id="path49"
       style="stroke-width:1.07982" />
    <path
       fill="#010101"
       d="m 277.14189,325.66666 -2.9155,7.10518 a 0.98263165,0.9934298 12.1 0 1 -0.93944,0.61549 l -4.29766,-0.17277 q -0.72348,-0.0216 -0.44272,-0.70188 l 13.16294,-30.9043 a 2.7103357,2.7103357 0 0 1 4.98875,0 l 13.30332,31.40102 a 0.09718335,0.09718335 0 0 1 -0.0864,0.14037 q -3.42301,0.26996 -7.06199,0.0756 -0.14038,-0.0108 -0.18357,-0.14038 l -2.51597,-7.23476 q -0.30235,-0.86385 -1.22019,-0.86385 l -10.78735,0.0108 q -0.73427,0 -1.00423,0.66949 z m 1.34977,-5.17232 a 0.46432045,0.46432045 0 0 0 0.44273,0.62629 l 7.80706,-0.0756 a 0.46432045,0.46432045 0 0 0 0.43192,-0.6263 l -3.99531,-10.58218 a 0.46432045,0.46432045 0 0 0 -0.87465,0.0108 z"
       id="path50"
       style="stroke-width:1.07982" />
    <path
       fill="#010101"
       d="m 391.88303,311.86662 -0.0216,20.98081 q -0.0108,0.5399 -0.53991,0.5291 l -3.35822,-0.054 a 0.7342742,0.7342742 0 0 1 -0.72348,-0.73427 V 300.8309 q 0,-0.66948 0.65869,-0.6047 c 1.30657,0.12958 2.62395,-0.31314 3.59578,0.82066 q 9.08125,10.49581 17.92493,20.38691 0.87465,0.98263 0.87465,-0.33474 l -0.0216,-20.4625 q 0,-0.38873 0.38874,-0.38873 l 4.0709,0.0324 q 0.21596,0 0.21596,0.22677 l 0.0108,31.90853 q 0,0.52911 -0.49671,0.73427 -2.28921,0.93944 -3.89814,-0.87465 -8.7573,-9.8803 -18.16248,-20.60287 a 0.29155005,0.29155005 0 0 0 -0.51832,0.19437 z"
       id="path51"
       style="stroke-width:1.07982" />
    <path
       fill="#010101"
       d="m 439.75123,314.56616 -1.64132,17.62258 q -0.054,0.5939 -0.64788,0.61549 l -4.29767,0.0972 q -0.50751,0.0216 -0.44272,-0.47512 l 3.57419,-31.34703 q 0.054,-0.52911 0.5723,-0.68029 2.72113,-0.79906 3.89813,1.54414 5.58264,11.1113 10.4742,20.67846 a 0.35633895,0.35633895 0 0 0 0.6371,0 l 10.72256,-21.79067 q 0.32394,-0.63709 1.02582,-0.5939 l 1.85728,0.12958 q 0.89625,0.054 0.99343,0.95024 l 3.56339,30.9475 q 0.11878,1.04742 -0.92864,1.06901 l -4.93475,0.0648 q -1.01503,0.0108 -1.11221,-1.00423 l -1.50094,-17.06107 q -0.20517,-2.3648 -1.23099,-0.21597 l -7.38594,15.56014 a 2.3539967,2.3539967 0 0 1 -4.23287,0.0324 l -8.12021,-16.3052 q -0.70188,-1.39297 -0.84226,0.16197 z"
       id="path52"
       style="stroke-width:1.07982" />
    <path
       fill="#010101"
       d="m 481.19453,325.64506 -2.77512,6.91082 q -0.33474,0.82065 -1.22019,0.82065 l -3.88734,0.0432 q -1.1338,0.0108 -0.69108,-1.03663 l 13.04417,-30.64514 a 2.7643264,2.7643264 0 0 1 5.08593,0 l 13.06576,30.68834 q 0.36713,0.87465 -0.5831,0.88545 l -5.49626,0.054 q -0.91784,0.0108 -1.23099,-0.85306 l -2.46198,-6.92161 q -0.19437,-0.56151 -0.78826,-0.56151 l -11.04651,-0.0648 q -0.73428,0 -1.01503,0.68028 z m 1.27418,-4.98875 a 0.35633895,0.35633895 0 0 0 0.33475,0.47512 l 8.1526,-0.0972 a 0.35633895,0.35633895 0 0 0 0.32395,-0.48592 l -4.20049,-10.86294 a 0.35633895,0.35633895 0 0 0 -0.66948,0.0108 z"
       id="path53"
       style="stroke-width:1.07982" />
    <path
       fill="#010101"
       d="m 513.31903,321.94129 q -0.20517,5.15072 -0.10798,10.78736 0.0216,0.98263 -0.96104,0.98263 l -4.74039,-0.0108 q -0.88544,0 -0.88544,-0.88545 l 0.11878,-31.72496 q 0.0108,-0.57231 0.5723,-0.6155 3.4986,-0.25915 7.80706,-0.17277 c 5.87419,0.11878 14.40473,2.73193 13.50849,10.29064 q -0.72348,6.01457 -6.37091,8.1418 a 0.48591675,0.48591675 0 0 0 -0.20517,0.75587 l 10.80895,13.64887 a 0.3239445,0.31314635 69.9 0 1 -0.23756,0.51831 l -6.45729,0.0432 q -0.63709,0 -1.00423,-0.51831 l -8.86528,-12.14792 q -2.79672,-3.82255 -2.98029,0.90704 z m -0.10798,-17.02868 0.0432,9.76153 a 0.65868715,0.65868715 0 0 0 0.66949,0.65869 l 2.58075,-0.0108 a 5.3126898,5.6798269 89.7 0 0 5.64744,-5.34509 v -0.45352 a 5.3126898,5.6798269 89.7 0 0 -5.71223,-5.28029 l -2.58075,0.0108 a 0.65868715,0.65868715 0 0 0 -0.64789,0.65869 z"
       id="path54"
       style="stroke-width:1.07982" />
    <rect
       fill="#010101"
       x="561.06842"
       y="300.28018"
       width="6.5004864"
       height="33.063934"
       rx="0.52910936"
       id="rect54"
       style="stroke-width:1.07982" />
    <path
       fill="#010101"
       d="m 578.59385,312.16897 0.0324,20.51648 q 0,0.6155 -0.6047,0.6263 l -3.4878,0.0756 q -0.66948,0.0216 -0.66948,-0.64789 l -0.0216,-31.85454 q 0,-0.61549 0.61549,-0.61549 l 2.28921,0.0108 a 1.4901447,1.4469521 68.9 0 1 1.10141,0.50752 l 18.54043,21.03479 q 0.5723,0.64789 0.5723,-0.20516 l 0.0108,-20.81883 q 0,-0.50752 0.51831,-0.51832 l 3.56339,-0.0108 q 0.5615,-0.0108 0.5615,0.5615 v 31.74656 q -0.0108,0.68029 -0.66948,0.78827 c -1.34977,0.22676 -2.68874,0.0972 -3.66058,-0.99343 q -8.61692,-9.67515 -18.01131,-20.4625 -0.68028,-0.77746 -0.68028,0.25916 z"
       id="path55"
       style="stroke-width:1.07982" />
  </g>
</svg>
