<?xml version="1.0" encoding="UTF-8" standalone="no"?>
<svg
   version="1.1"
   viewBox="0 0 355 480.83401"
   id="svg104"
   sodipodi:docname="ferrari.svg"
   inkscape:version="1.3 (0e150ed6c4, 2023-07-21)"
   width="355"
   height="480.83401"
   xmlns:inkscape="http://www.inkscape.org/namespaces/inkscape"
   xmlns:sodipodi="http://sodipodi.sourceforge.net/DTD/sodipodi-0.dtd"
   xmlns="http://www.w3.org/2000/svg"
   xmlns:svg="http://www.w3.org/2000/svg">
  <defs
     id="defs104" />
  <sodipodi:namedview
     id="namedview104"
     pagecolor="#ffffff"
     bordercolor="#000000"
     borderopacity="0.25"
     inkscape:showpageshadow="2"
     inkscape:pageopacity="0.0"
     inkscape:pagecheckerboard="0"
     inkscape:deskcolor="#d1d1d1"
     inkscape:zoom="0.94"
     inkscape:cx="199.46809"
     inkscape:cy="223.93617"
     inkscape:window-width="1366"
     inkscape:window-height="705"
     inkscape:window-x="-8"
     inkscape:window-y="-8"
     inkscape:window-maximized="1"
     inkscape:current-layer="svg104" />
  <g
     id="g104"
     transform="matrix(0.98793775,0,0,0.98793775,-45.398518,-18.033524)">
    <path
       fill="#00e500"
       d="M 225.42,33.81 50.04,66.28 A 0.66,0.66 0 0 1 49.26,65.63 L 49.23,56.25 A 0.66,0.66 0 0 1 49.77,55.6 L 225.52,22.2 a 0.66,0.66 0 0 1 0.24,0 l 175.72,33.39 a 0.66,0.66 0 0 1 0.53,0.65 l -0.1,9.41 a 0.66,0.66 0 0 1 -0.78,0.64 L 225.66,33.81 a 0.66,0.66 0 0 0 -0.24,0 z"
       id="path63"
       style="fill:#000000;fill-opacity:1" />
    <path
       fill="#fe0000"
       d="M 401.5,106.03 Q 390.99,100.68 388,99.29 364.49,88.38 330.79,79.81 310.17,74.56 288.43,71.54 241.06,64.95 192.58,68.38 C 151.96,71.26 111.47,79.81 73.53,95 q -12.1,4.84 -23.89,11.05 L 49.23,77.77 A 0.77,0.77 0 0 1 49.87,77 L 223.99,47.37 a 9.62,9.62 0 0 1 3.2,0 l 174.05,29.62 a 0.74,0.73 5.6 0 1 0.61,0.73 z"
       id="path64"
       style="fill:#000000;fill-opacity:1" />
    <path
       fill="#000000"
       d="m 401.5,104.03 q -0.65,44.29 -1.34,88.73 c -0.75,49.23 -11.63,98.44 -30.61,143.55 Q 325,442.2 226.54,500.78 a 1.75,1.74 -45.2 0 1 -1.76,0.01 Q 144.61,453.49 99.39,372.8 C 72.09,324.09 56.19,268.59 51.85,212.98 Q 51.22,204.92 51.03,193 50.42,153 49.8,113 49.73,108.16 49.64,104.05 61.43,97.84 73.53,93 C 111.47,77.81 151.96,69.26 192.58,66.38 q 48.48,-3.43 95.85,3.16 21.74,3.02 42.36,8.27 33.7,8.57 57.21,19.48 2.99,1.39 13.5,6.74 z m -27.44,203.19 1.41,-4.7 q 0.75,-2.24 1.44,-4.55 12.06,-40.22 15.27,-81.49 0.68,-8.63 0.89,-19.58 0.88,-43.82 1.83,-85.85 a 1.38,1.37 -75.1 0 0 -0.71,-1.24 C 367.76,95.34 337.52,86.39 307.65,81.01 Q 248.34,70.32 184.4,75.57 149.86,78.41 117.3,86.79 c -21,5.41 -42,12.64 -60.45,23.19 a 1.21,1.19 74.8 0 0 -0.6,1.06 q 1.02,43.19 1.79,84.25 c 1.28,68.18 21.11,137.41 58.56,194.22 q 41.33,62.7 108.63,102.11 a 0.77,0.77 0 0 0 0.78,0 q 95.92,-56.29 138.66,-159.12 4.71,-11.34 9.39,-25.28 z"
       id="path65"
       style="fill:#000000;fill-opacity:1" />
    <path
       fill="#000000"
       d="m 263.13,175.93 q 1.16,1.69 3.74,3.04 0.77,0.41 0.63,1.26 -0.05,0.29 -0.27,0.34 -1.36,0.29 -2.48,-0.47 -2.25,-1.52 -4.55,-2.08 -1.63,-0.39 -0.66,0.98 1.26,1.78 4.02,2.35 c 2.58,0.53 4.85,0.99 6.87,2.9 q 2.63,2.49 6.06,3.13 0.69,0.12 0.73,0.82 0.07,1.02 -0.97,1.2 -4.78,0.8 -8.71,-1.85 c -2.56,-1.72 -5.31,-2.42 -8.33,-1.54 a 0.44,0.44 0 0 0 -0.23,0.68 q 0.12,0.17 0.32,0.24 0.2,0.07 0.42,0.08 c 3.19,0.12 5.92,0.57 8.41,2.78 q 2.22,1.97 4.87,3.83 a 0.42,0.42 0 0 1 0.11,0.58 l -0.17,0.25 a 0.93,0.93 0 0 1 -1.27,0.28 c -2.5,-1.53 -5.24,-2.85 -8.28,-2.29 q -6.58,1.21 -12.28,-1.6 a 0.53,0.53 0 0 0 -0.76,0.43 l -0.03,0.27 q -0.01,0.15 0.13,0.23 4.54,2.4 9.61,3.72 c 3.08,0.8 5.05,3.1 7.09,5.35 3.26,3.61 8.05,3.14 11.82,0.21 a 0.64,0.64 0 0 1 0.95,0.2 q 0.14,0.24 0.09,0.52 -0.16,0.84 -0.87,1.39 -3.8,2.97 -8.67,2.5 c -4.58,-0.43 -8.37,-3.75 -12.94,-4.63 q -3.31,-0.64 -6.48,-1.67 -0.81,-0.27 -0.5,0.53 0.36,0.94 1.46,1.17 7.96,1.66 13.73,8.76 0.61,0.76 -0.11,1.41 l -0.28,0.25 a 0.57,0.57 0 0 1 -0.8,-0.02 q -4.4,-4.43 -9.19,-5.17 -0.4,-0.06 -0.74,0.14 -0.34,0.19 -0.24,0.42 0.09,0.23 0.33,0.31 c 3.11,1.05 5.63,2.75 7.27,5.7 q 1.36,2.44 3.85,4.09 a 0.67,0.67 0 0 1 0.19,0.92 q -0.66,1.01 -2.66,-0.37 a 9.37,2.99 37.8 0 1 -1.07,-0.77 c -3.86,-2.94 -7,-5.87 -12.05,-6.58 q -3.26,-0.46 -6.16,-2.97 a 1.07,1.06 -62.4 0 0 -1.73,0.55 c -2.3,9.15 1.82,18.64 7.05,25.87 3.8,5.24 7.99,10.44 13.47,14.2 6.55,4.49 12.34,9.3 17.41,15.39 5.77,6.93 10.04,13.28 11.96,22.44 q 0.16,0.75 0.92,0.86 2.69,0.4 5.45,-0.5 c 11.89,-3.89 19.06,-13.06 19.76,-25.51 q 0.77,-13.91 -2.8,-25.83 c -4.09,-13.64 -3.45,-26.46 6.75,-36.89 q 4.23,-4.33 10.9,-8.31 a 0.47,0.46 60.8 0 1 0.65,0.19 l 0.14,0.27 q 0.32,0.63 -0.22,1.08 c -7.67,6.41 -14.65,16.7 -13.52,26.93 a 0.48,0.48 0 0 0 0.77,0.33 q 9.24,-6.94 14.29,-16.27 2.32,-4.3 3.12,0.49 0.03,0.16 -0.56,2.06 c -1,3.22 -2.65,6.4 -4.83,9.03 -4.48,5.4 -8.32,11.22 -6.18,18.58 a 1.05,1.05 0 0 0 1.66,0.54 c 4.88,-3.85 8.58,-10.03 10.26,-15.72 q 0.17,-0.58 0.72,-0.81 0.46,-0.19 0.87,0.11 0.38,0.28 0.49,0.74 c 2.05,8.31 -5.76,11.94 -7.36,19.03 q -1.77,7.91 -0.44,14.76 c 3.69,19.12 0.69,36.12 -19.62,42.86 q -0.7,0.23 -0.37,0.89 2.44,4.82 2.36,9.77 c -0.05,2.92 -2.25,5.47 -1.6,8.26 q 0.63,2.75 0.87,5.32 0.22,2.27 -1.14,0.44 -2.55,-3.44 -2.74,-7.23 c -0.28,-5.33 0.15,-9.72 -4.01,-13.88 q -0.48,-0.48 -1.01,-0.05 l -0.21,0.18 a 0.35,0.34 52.8 0 0 -0.06,0.46 q 3.29,4.89 2.78,10.73 -0.92,10.48 -7.95,17.86 c -2.4,2.52 -4.79,5.91 -4.59,9.5 q 0.11,2.12 -1.15,0.41 c -2.61,-3.56 -0.99,-7.51 1.13,-10.9 3.54,-5.67 6.73,-12.18 4.86,-19.07 a 0.73,0.72 -19.2 0 0 -0.98,-0.47 q -1.33,0.56 -1.49,2.11 -0.38,3.84 -2.11,7.45 c -0.48,1.01 -0.57,1.98 -0.67,3.07 q -0.43,4.78 -1.7,0.15 c -0.92,-3.39 0.48,-8.87 1.36,-12.4 0.51,-2.07 1.07,-6.58 -1.13,-7.89 a 1.2,1.2 0 0 0 -1.81,0.9 c -0.49,4.42 -1.42,8.66 -3.67,12.56 -5,8.68 -12.7,15.34 -21,20.47 q -4.06,2.51 -6.02,5.42 c -2.81,4.16 -3,9.99 -0.03,14.23 1.88,2.69 2.65,4.97 2.48,8.46 -0.1,2.21 0.53,4.22 -1.97,5.46 q -14.45,7.15 -24.36,20.09 -1.14,1.48 -1.64,3.41 c -0.5,1.95 -3.77,3.09 -5.31,4.04 a 2.29,2.28 65.9 0 0 -0.99,2.62 c 0.54,1.74 1.5,3.98 -0.5,5.24 -5.28,3.32 -14.21,2.69 -20.18,1.31 a 1.59,1.58 18.2 0 1 -1.1,-2.17 c 2.23,-5.22 6.85,-8.6 11.56,-11.62 1.3,-0.84 2.37,-2.22 2.96,-3.65 q 1.12,-2.69 3.9,-4.68 8.66,-6.18 16.32,-13.32 3.58,-3.33 6.18,-7.09 c 0.9,-1.29 0.82,-2.87 -0.04,-4.16 -9.58,-14.42 -16.85,-33.02 -9.81,-49.15 2.93,-6.7 8.17,-12.71 8.27,-20.31 a 1.08,1.07 11.7 0 0 -0.67,-1.01 l -0.32,-0.13 a 0.38,0.38 0 0 0 -0.52,0.32 q -0.51,6.81 -3.72,11.57 -14.11,20.94 -3.05,44.11 2.09,4.4 -0.64,9.16 c -1.31,2.3 -4.69,2.06 -6.85,1.44 -10.52,-2.99 -21.18,-5.43 -31.95,-5.45 -3.27,-0.01 -6.05,0.96 -9.16,1.41 q -2.31,0.34 -5.24,-1.12 a 1.56,1.54 -38 0 0 -1.05,-0.12 c -2.1,0.47 -3.52,2.9 -4.44,4.69 q -0.25,0.49 -0.77,0.69 c -4.03,1.53 -14.66,-2.03 -17.31,-5.77 a 0.97,0.96 -51.5 0 1 -0.1,-0.92 q 0.82,-1.89 2.56,-2.88 c 4.87,-2.8 10.14,-4.11 15.75,-3.89 q 2.77,0.11 5.56,-0.65 3.85,-1.04 7.81,-0.55 15.14,1.88 31.38,1.06 c 2.47,-0.12 4.9,-4.8 3.53,-6.92 q -7.18,-11.13 -12.12,-23.91 -4.68,-12.11 -2.91,-23.9 a 0.71,0.71 0 0 1 1.08,-0.5 q 8.72,5.45 15.78,13.8 a 0.64,0.63 -41 0 0 0.91,0.06 q 0.31,-0.29 0.25,-0.71 -0.17,-1.02 -0.78,-1.77 -4.24,-5.26 -9.35,-8.92 -13.36,-9.59 -24.73,-20.76 c -6.28,-6.15 -10.46,-12.83 -15.15,-20.05 -0.91,-1.41 -2.06,-2.48 -3.77,-2.78 q -5.77,-1 -9.33,-5.24 -3.14,-3.75 -7.95,-6.1 c -4.08,-2 -7.95,-4.73 -11.54,-7.48 q -1.58,-1.2 -3.62,-0.97 a 1.9,1.9 0 0 0 -1.64,2.33 c 0.66,2.79 1.48,5.56 1.59,8.44 0.23,6.37 0.43,11.19 3.61,17.19 1.06,2 1.13,4.26 1.26,6.47 a 2.67,2.66 6 0 0 1.94,2.39 c 3.36,0.95 6.35,1.92 6.85,6.01 0.56,4.52 0.3,12.8 -4.29,14.71 A 1.37,1.35 45.3 0 1 153,279.76 c -4.74,-2.09 -9.17,-12.34 -11.08,-16.97 -1.35,-3.3 -4.95,-5.58 -4.86,-9.33 0.07,-3 -1.1,-5.57 -1.4,-8.5 q -0.91,-8.77 -2.61,-18.36 c -0.75,-4.19 -1.69,-9.94 0.51,-13.84 2.03,-3.61 5.82,-7.46 10.17,-7.01 q 11.74,1.2 21.03,5.61 0.61,0.28 0.94,-0.3 l 0.15,-0.24 a 0.34,0.33 32.9 0 0 -0.1,-0.44 q -8.95,-6.46 -13.98,-15.03 -1.62,-2.77 -4.92,-2.04 -0.6,0.13 -0.88,0.68 c -3.08,6.08 -7.7,10.95 -12.24,15.93 q -3.58,3.92 -3.96,8.11 -0.32,3.42 -2.38,6.19 a 1.74,1.74 0 0 0 -0.12,1.9 c 1.68,2.96 3.65,5.04 0.46,8.15 q -5.24,5.1 -12.38,6.58 a 1.09,1.09 0 0 1 -1.31,-0.99 c -0.29,-4.23 0.47,-9.13 2.55,-12.94 q 1.47,-2.7 1.68,-6.43 c 0.13,-2.38 1.72,-5.1 3.07,-7.06 4.78,-6.95 8.11,-14.49 12.24,-21.59 q 4.27,-7.34 8.66,-13.74 3.42,-4.99 9.89,-3.49 c 4.03,0.94 6.81,3.2 9.52,6.15 q 1.52,1.66 3.68,3.08 6.41,4.23 12.63,8.43 a 1.3,1.29 -46.3 0 0 1.52,-0.04 c 4.46,-3.39 8.58,-6.41 13.93,-8.42 2.07,-0.78 4.22,-3.03 5.43,-4.85 q 2.65,-3.97 5.72,-6.93 c 5.26,-5.07 9.44,-10.16 12.58,-16.56 q 3.13,-6.39 5.22,-12.17 0.47,-1.3 0.25,-2.77 a 1.83,1.82 -11.5 0 0 -2.27,-1.5 q -3.22,0.85 -6.35,0.09 -5.15,-1.27 -10.35,-2.45 -5.36,-1.22 -9.62,1.01 c -2.64,1.38 -6.02,1.58 -8.48,-0.31 a 0.98,0.97 36.7 0 1 -0.2,-1.35 q 0.3,-0.42 0.88,-0.58 3.3,-0.96 6.37,-2.05 0.8,-0.28 0.71,-1.12 l -0.03,-0.35 a 0.42,0.42 0 0 0 -0.55,-0.36 q -5.22,1.76 -10.56,2.47 -0.98,0.13 -1.32,-0.8 c -1.14,-3.07 -0.96,-6.21 0.8,-9.12 1.68,-2.78 3.43,-6.01 6.84,-6.77 2.36,-0.53 4.69,-0.67 7,-1.44 q 9.18,-3.06 15.95,-7.48 c 2.27,-1.49 4.57,-2.21 7.11,-3.19 a 0.48,0.48 0 0 0 0.05,-0.88 q -0.65,-0.32 -1.37,-0.04 -0.55,0.21 -0.9,-0.26 -0.21,-0.29 -0.03,-0.6 0.36,-0.61 -0.31,-0.82 c -3.63,-1.09 -7.58,-2.43 -11.2,-1.45 q -0.51,0.14 -0.96,-0.1 -0.27,-0.14 -0.19,-0.57 a 0.51,0.51 0 0 1 0.23,-0.34 c 3.11,-2.01 5.6,-1.3 8.82,-1.2 q 0.33,0.01 0.59,-0.16 0.19,-0.13 0.2,-0.36 0.01,-0.38 -0.36,-0.46 -1.86,-0.43 -3.76,-0.86 -0.61,-0.14 -0.52,-0.76 a 0.59,0.59 0 0 1 0.49,-0.5 q 3.22,-0.5 6.25,-0.55 c 4.88,-0.07 7.86,4.25 13.03,2.9 a 1.33,1.32 67.6 0 0 0.81,-1.95 l -0.74,-1.28 a 1.89,1.86 -55.1 0 1 -0.22,-1.29 q 0.49,-2.53 1.72,-5.48 0.26,-0.63 0.74,-0.16 c 3.59,3.52 7.73,5.76 10.67,9.95 q 0.32,0.44 0.86,0.48 1.31,0.08 2.6,0.06 c 4.17,-0.04 7.04,2.58 9.59,5.5 1.96,2.23 10.03,1.5 13.06,1.38 2.29,-0.09 4.17,1.15 5.57,2.87 q 0.75,0.91 -0.11,1.63 -0.39,0.33 -0.87,0.16 c -1.32,-0.47 -2.67,-1.26 -4.1,-1.01 q -3.78,0.67 -6.97,2.06 -2.15,0.94 0.16,1.37 c 4.85,0.89 7.82,3.31 11.87,5.64 q 0.59,0.35 1.28,0.33 c 5.92,-0.13 9.05,3.55 13.33,6.65 a 0.73,0.72 42.2 0 1 0.06,1.12 q -0.49,0.44 -1.17,0.16 c -2.19,-0.88 -5.6,-3.28 -7.81,-3.03 -3.93,0.43 -7.26,0.41 -11.12,-1.01 q -2.71,-1 -5.57,-1.84 -0.81,-0.24 -1.02,-0.16 -2,0.79 -0.08,1.72 2.74,1.33 5.15,2.73 c 2.75,1.59 3.57,5.46 7.68,5.6 q 7.31,0.26 12.77,5.61 0.72,0.71 0.69,1.61 -0.07,2.12 -1.39,0.46 c -1.61,-2.04 -4.32,-4.09 -7.03,-3.31 -5.57,1.62 -7.93,0.54 -12.19,-2.78 q -0.14,-0.11 -0.31,-0.15 -0.54,-0.14 -0.45,0.49 a 0.57,0.57 0 0 0 0.15,0.33 c 2.24,2.38 4.46,5.07 7.76,6.02 3.39,0.98 5.76,3.48 9.27,3.93 a 0.66,0.65 25.9 0 1 0.39,1.11 c -2.22,2.24 -6.89,-0.49 -9.44,-0.91 q -5.06,-0.83 -9.44,-3.54 -1.08,-0.67 -2.39,-0.88 -1.07,-0.18 -1.75,0.37 -1.45,1.16 0.37,1.56 4.85,1.07 8.99,3.8 c 1.87,1.24 2.64,3.06 3.79,4.86 q 0.31,0.49 0.82,0.77 2.9,1.59 4.69,4.26 c 0.88,1.32 2.3,1.94 3.7,2.6 q 3.24,1.54 -0.33,1.91 c -4.26,0.45 -5.02,-2.91 -8.37,-3.94 q -5.9,-1.82 -12.09,-4.92 -1.96,-0.98 -0.95,0.97 0.75,1.44 2.04,2.52 c 4.19,3.5 8.79,4.44 10.51,10.33 1.34,4.6 6.19,2.85 8.57,5.56 a 0.77,0.76 -27.9 0 1 -0.39,1.25 c -4.74,1.19 -9.08,-0.65 -12.28,-4.35 q -1.03,-1.18 -2.57,-1.5 -3.43,-0.72 -6.43,-1.85 -1.13,-0.43 -2.22,0.14 -0.38,0.2 -0.25,0.86 a 0.7,0.7 0 0 0 0.49,0.54 q 3.63,1.07 5.73,4.04 1.39,1.97 3.77,3.02 c 5.31,2.35 6.69,6.72 10.15,10.78 q 0.58,0.68 -0.25,1.03 -0.27,0.12 -0.55,0.08 -0.96,-0.12 -1.67,-0.79 c -1.58,-1.48 -2.6,-2.85 -4.76,-3.7 q -3.31,-1.31 -7.34,-3.42 -1.83,-0.96 -0.65,0.74 z m -14.7312,-71.0791 a 2.28,1.08 23 0 0 -1.6768,-1.885 2.28,1.08 23 0 0 -2.5208,0.1032 2.28,1.08 23 0 0 1.6768,1.885 2.28,1.08 23 0 0 2.5208,-0.1032 z m 3.3225,6.9273 a 2.24,1.07 21.7 0 0 -1.6857,-1.8224 2.24,1.07 21.7 0 0 -2.4769,0.166 2.24,1.07 21.7 0 0 1.6857,1.8224 2.24,1.07 21.7 0 0 2.4769,-0.166 z M 223.66,110.38 l 4.27,2.35 a 0.12,0.12 0 0 0 0.17,-0.05 l 0.02,-0.05 a 2.41,1.42 28.8 0 0 -1.42,-2.41 l -0.27,-0.14 a 2.41,1.42 28.8 0 0 -2.79,0.08 l -0.03,0.05 a 0.12,0.12 0 0 0 0.05,0.17 z m -11.41,1.7 c -3.54,2.82 -6.93,3.96 -11.03,5.46 q -3.49,1.28 0.22,1.01 c 3.93,-0.29 9.8,-2.01 11.66,-5.79 q 1.11,-2.24 -0.85,-0.68 z m 6.6,2.92 q -0.08,1.25 1.11,0.86 2.88,-0.95 4.82,2.16 a 1.11,1.1 -35.5 0 0 1.63,0.27 c 1.64,-1.33 -0.24,-4.57 -1.3,-5.29 q -0.92,-0.62 -2.01,-0.48 -4.13,0.54 -4.25,2.48 z m 30.81,6.51 c 2.23,-1.15 4.43,-1.86 6.91,-1.84 q 0.62,0.01 0.32,-0.53 l -0.17,-0.29 q -0.23,-0.42 -0.72,-0.46 l -6.63,-0.46 q -0.42,-0.03 -0.63,0.34 -0.77,1.36 -0.47,2.61 a 0.97,0.97 0 0 0 1.39,0.63 z m -61.51,4.88 a 0.78,0.78 0 0 0 -0.16,-1.36 l -2.28,-0.94 a 0.78,0.78 0 0 0 -1.01,0.4 l -1.76,3.84 a 0.78,0.78 0 0 0 1.17,0.96 z m 63.17,0.6 4.37,1.55 a 0.13,0.13 0 0 0 0.17,-0.08 l 0.02,-0.06 a 2.3,1.81 19.5 0 0 -1.56,-2.47 l -0.29,-0.1 a 2.3,1.81 19.5 0 0 -2.77,0.94 l -0.02,0.05 a 0.13,0.13 0 0 0 0.08,0.17 z m -22.91,0.41 -0.21,-0.19 q -0.39,-0.35 -0.77,0.02 -3.86,3.82 -8.61,5.8 -1.69,0.71 0.09,1.12 c 2.23,0.51 4.33,0.02 5.73,-1.85 q 1.74,-2.34 3.78,-4.53 0.19,-0.19 -0.01,-0.37 z m -28.6773,2.2863 a 1.38,1 -34.1 0 0 -1.7033,-0.0544 1.38,1 -34.1 0 0 -0.5821,1.6018 1.38,1 -34.1 0 0 1.7033,0.0544 1.38,1 -34.1 0 0 0.5821,-1.6018 z m 34.5373,1.8137 -5.2,3.83 a 0.15,0.15 0 0 0 -0.04,0.21 l 0.03,0.04 a 3.2,1.5 -36.4 0 0 3.47,-0.69 l 0.29,-0.21 a 3.2,1.5 -36.4 0 0 1.68,-3.11 l -0.02,-0.04 a 0.15,0.15 0 0 0 -0.21,-0.03 z m 17.19,1.44 4.68,1.81 a 0.14,0.14 0 0 0 0.18,-0.08 l 0.03,-0.06 a 2.49,1.99 21.2 0 0 -1.6,-2.76 l -0.3,-0.11 a 2.49,1.99 21.2 0 0 -3.04,0.95 l -0.03,0.07 a 0.14,0.14 0 0 0 0.08,0.18 z m -22.47,4.59 q -0.5,0.06 -0.64,0.54 a 0.33,0.33 0 0 0 0.31,0.43 c 2.63,0.08 7.28,0.6 7.73,-3.19 q 0.09,-0.77 -0.54,-0.32 -2.84,2.06 -6.86,2.54 z m 22.86,1.3 5,1.98 a 0.18,0.18 0 0 0 0.23,-0.1 l 0.03,-0.06 a 2.74,2.25 21.6 0 0 -1.72,-3.1 l -0.24,-0.1 a 2.74,2.25 21.6 0 0 -3.38,1.08 l -0.02,0.07 a 0.18,0.18 0 0 0 0.1,0.23 z m -0.31,6.99 5.21,1.88 a 0.13,0.13 0 0 0 0.17,-0.08 l 0.03,-0.08 a 2.75,2.23 19.8 0 0 -1.84,-3.03 l -0.28,-0.1 a 2.75,2.23 19.8 0 0 -3.34,1.17 l -0.03,0.07 a 0.13,0.13 0 0 0 0.08,0.17 z m -20.95,10.83 c -1.9,6.91 -6.11,12.31 -10.03,18.38 q -0.07,0.11 0.01,0.21 l 0.19,0.25 a 0.44,0.43 48.2 0 0 0.66,0.04 q 3.32,-3.48 6.79,-7.87 4.92,-6.22 5.58,-13.97 0.07,-0.84 -0.13,-1.56 -0.67,-2.32 -1.56,-0.08 -0.83,2.12 -1.51,4.6 z m 20.36,-3.87 6.13,2.29 a 0.04,0.04 0 0 0 0.05,-0.03 l 0.01,-0.03 a 3.17,2.7 20.5 0 0 -2.02,-3.64 l -0.26,-0.1 a 3.17,2.7 20.5 0 0 -3.92,1.42 l -0.01,0.04 a 0.04,0.04 0 0 0 0.02,0.05 z m -0.25,6.66 5.01,1.96 a 0.15,0.15 0 0 0 0.19,-0.09 l 0.03,-0.06 a 2.69,2.18 21.4 0 0 -1.71,-3.01 l -0.28,-0.11 a 2.69,2.18 21.4 0 0 -3.3,1.05 l -0.03,0.06 a 0.15,0.15 0 0 0 0.09,0.2 z m 0.38,6.11 q 1.6,0.94 3.47,1.06 0.7,0.05 0.43,-0.59 -0.69,-1.62 -2.46,-2.06 -1.17,-0.29 -1.69,0.78 -0.25,0.52 0.25,0.81 z m 2.4853,6.2115 a 1.76,0.94 24.2 0 0 -1.22,-1.5789 1.76,0.94 24.2 0 0 -1.9906,0.1359 1.76,0.94 24.2 0 0 1.22,1.5789 1.76,0.94 24.2 0 0 1.9906,-0.1359 z m -1.4131,5.1175 a 1.59,0.87 20.2 0 0 -1.1918,-1.3655 1.59,0.87 20.2 0 0 -1.7926,0.2675 1.59,0.87 20.2 0 0 1.1918,1.3655 1.59,0.87 20.2 0 0 1.7926,-0.2675 z m -99.975,2.2645 a 2.19,0.98 -6.2 0 0 -2.283,-0.7378 2.19,0.98 -6.2 0 0 -2.0714,1.2108 2.19,0.98 -6.2 0 0 2.283,0.7378 2.19,0.98 -6.2 0 0 2.0714,-1.2108 z m 98.6873,2.2092 a 1.63,0.9 21.7 0 0 -1.1817,-1.4389 1.63,0.9 21.7 0 0 -1.8473,0.2335 1.63,0.9 21.7 0 0 1.1817,1.4389 1.63,0.9 21.7 0 0 1.8473,-0.2335 z m -1.9234,4.8291 a 1.21,0.71 24.5 0 0 -0.8067,-1.1479 1.21,0.71 24.5 0 0 -1.3955,0.1443 1.21,0.71 24.5 0 0 0.8067,1.1479 1.21,0.71 24.5 0 0 1.3955,-0.1443 z M 202.45,187.19 q -1.54,0.39 -2.46,1.05 -3.3,2.37 0.59,1.21 7.31,-2.18 15.61,1.72 0.38,0.17 0.7,-0.1 a 0.39,0.38 48.5 0 0 0.03,-0.56 q -5.42,-5.65 -14.47,-3.32 z m -68.9626,11.7457 a 6.34,1.14 121.5 0 0 4.2846,-4.8101 6.34,1.14 121.5 0 0 2.3406,-6.0013 6.34,1.14 121.5 0 0 -4.2846,4.8101 6.34,1.14 121.5 0 0 -2.3406,6.0013 z M 246.42,191.11 a 0.45,0.44 -8.7 0 0 0.45,-0.6 q -0.27,-0.68 -1.13,-0.74 a 0.5,0.5 0 0 0 -0.42,0.82 q 0.39,0.47 1.1,0.52 z m -85.1245,9.0632 a 3.73,1.03 52.6 0 0 -1.4473,-3.5888 3.73,1.03 52.6 0 0 -3.0837,-2.3376 3.73,1.03 52.6 0 0 1.4473,3.5888 3.73,1.03 52.6 0 0 3.0837,2.3376 z m 83.6742,-4.6907 a 0.97,0.63 31.2 0 0 -0.5033,-1.0414 0.97,0.63 31.2 0 0 -1.1561,0.0364 0.97,0.63 31.2 0 0 0.5033,1.0414 0.97,0.63 31.2 0 0 1.1561,-0.0364 z M 172.28,211.9 l 7.85,-12.09 a 0.05,0.05 0 0 0 -0.02,-0.07 l -0.04,-0.03 a 7,1.86 -57 0 0 -5.37,4.86 l -0.28,0.43 a 7,1.86 -57 0 0 -2.26,6.89 l 0.05,0.03 a 0.05,0.05 0 0 0 0.07,-0.02 z m -34.425,1.952 a 2.15,0.85 120 0 0 1.8111,-1.437 2.15,0.85 120 0 0 0.3389,-2.287 2.15,0.85 120 0 0 -1.8111,1.437 2.15,0.85 120 0 0 -0.3389,2.287 z m -17.5431,6.6693 a 2.63,0.87 117.1 0 0 1.9726,-1.945 2.63,0.87 117.1 0 0 0.4236,-2.7376 2.63,0.87 117.1 0 0 -1.9726,1.945 2.63,0.87 117.1 0 0 -0.4236,2.7376 z M 252.37,248.13 l 0.19,-0.19 a 0.49,0.49 0 0 0 -0.04,-0.73 c -8.68,-7.14 -15.38,-15.22 -16.06,-26.45 a 1.68,1.61 -61 0 0 -0.17,-0.64 q -1.1,-2.14 -2.14,0.02 a 1.34,1.23 -35.9 0 0 -0.13,0.64 c 0.62,11.24 8.37,21.95 18,27.4 q 0.19,0.11 0.35,-0.05 z m -87.9249,-19.896 a 7.32,1.1 27.8 0 0 -5.9621,-4.387 7.32,1.1 27.8 0 0 -6.9881,-2.441 7.32,1.1 27.8 0 0 5.9621,4.387 7.32,1.1 27.8 0 0 6.9881,2.441 z M 140.18,241.53 c -0.92,-4.08 -1.92,-7.47 -1.87,-11.86 q 0,-0.47 -0.42,-0.67 -0.39,-0.19 -0.85,0.26 a 0.74,0.72 -17.6 0 0 -0.22,0.41 q -1.22,6.91 2.53,12.43 0.07,0.1 0.19,0.12 0.16,0.03 0.3,-0.03 0.45,-0.19 0.34,-0.66 z m -23.1365,-5.0126 a 2.19,0.98 99.9 0 0 1.3419,-1.9889 2.19,0.98 99.9 0 0 -0.5889,-2.3259 2.19,0.98 99.9 0 0 -1.3419,1.9889 2.19,0.98 99.9 0 0 0.5889,2.3259 z M 198.73,258.77 q 9.14,9.95 19.4,16.37 0.59,0.38 0.52,-0.32 l -0.02,-0.3 q -0.07,-0.73 -0.65,-1.19 -15.47,-12.21 -27.13,-28.22 -0.48,-0.66 -1.58,-0.96 -0.29,-0.08 -0.58,0.18 a 0.46,0.44 55.3 0 0 -0.09,0.54 q 3.1,6.25 10.13,13.9 z m 123.86,11.42 c -1.85,5.96 -5.87,9.47 -9.94,13.58 q -0.51,0.52 -0.34,1.23 l 0.07,0.28 q 0.09,0.4 0.43,0.16 c 7.18,-5.02 12.27,-10.72 12.85,-20.19 q 0.44,-7.28 -0.55,-13.42 -0.1,-0.65 -0.75,-0.63 h -0.26 a 0.37,0.35 85.6 0 0 -0.34,0.41 q 1.44,10.18 -1.17,18.58 z m -75.55,3.66 c 0.61,-4.37 2.32,-4.49 5.16,-6.52 q 2.06,-1.48 -0.47,-1.57 c -3.88,-0.14 -7.07,4.14 -6.98,7.68 q 0.02,1.1 1.08,1.4 0.19,0.05 0.38,0 0.73,-0.23 0.83,-0.99 z m -94.1181,1.4082 a 2.47,1.04 47.4 0 0 -0.9064,-2.5222 2.47,1.04 47.4 0 0 -2.4374,-1.1142 2.47,1.04 47.4 0 0 0.9064,2.5222 2.47,1.04 47.4 0 0 2.4374,1.1142 z M 284.43,291.51 l -1.48,11.72 a 0.12,0.12 0 0 0 0.11,0.14 h 0.02 a 3.91,2.87 -82.8 0 0 3.34,-3.52 l 0.53,-4.2 a 3.91,2.87 -82.8 0 0 -2.35,-4.24 l -0.03,-0.01 a 0.12,0.12 0 0 0 -0.14,0.11 z m -42.3,30.24 c -0.71,-4.61 -0.02,-7.82 1.7,-11.71 a 0.7,0.7 0 0 0 -0.54,-0.97 q -0.74,-0.1 -1.23,0.44 -3.82,4.2 -1.49,11.96 a 0.98,0.96 -7.7 0 0 0.92,0.69 h 0.28 q 0.43,0 0.36,-0.41 z m -9.0183,15.2824 a 1.58,0.81 -36.4 0 0 -1.7524,0.2856 1.58,0.81 -36.4 0 0 -0.791,1.5896 1.58,0.81 -36.4 0 0 1.7524,-0.2856 1.58,0.81 -36.4 0 0 0.791,-1.5896 z m -37.462,3.4025 a 1.2,0.7 -1.2 0 0 -1.2144,-0.6747 1.2,0.7 -1.2 0 0 -1.185,0.7249 1.2,0.7 -1.2 0 0 1.2144,0.6747 1.2,0.7 -1.2 0 0 1.185,-0.7249 z M 205.17,342.3 q 5.98,1.23 14.26,-0.03 0.58,-0.09 0.54,-0.67 l -0.02,-0.27 q -0.02,-0.34 -0.36,-0.31 -7.91,0.53 -16.49,-1.02 a 0.49,0.49 0 0 0 -0.56,0.35 q -0.18,0.7 0.42,1.07 1.07,0.65 2.21,0.88 z m -32.7367,-0.5121 a 1.91,1.06 -14 0 0 -2.1097,-0.5664 1.91,1.06 -14 0 0 -1.5969,1.4906 1.91,1.06 -14 0 0 2.1097,0.5664 1.91,1.06 -14 0 0 1.5969,-1.4906 z m 86.1086,20.8274 a 1.27,0.93 131.9 0 0 1.5403,-0.3242 1.27,0.93 131.9 0 0 0.1559,-1.5664 1.27,0.93 131.9 0 0 -1.5403,0.3242 1.27,0.93 131.9 0 0 -0.1559,1.5664 z m -8.6208,2.6063 a 0.81,0.81 0 0 0 -1.1451,-0.03 l -11.7946,11.1927 a 0.81,0.81 0 0 0 -0.03,1.1451 l 0.0275,0.029 a 0.81,0.81 0 0 0 1.1451,0.03 l 11.7946,-11.1927 a 0.81,0.81 0 0 0 0.03,-1.1451 z m -20.0545,16.7386 a 1.86,0.93 -41.8 0 0 -2.0065,0.5465 1.86,0.93 -41.8 0 0 -0.7667,1.9331 1.86,0.93 -41.8 0 0 2.0065,-0.5465 1.86,0.93 -41.8 0 0 0.7667,-1.9331 z m -13.5644,14.5852 a 0.93,0.93 0 0 0 -0.078,-1.3129 l -0.2842,-0.2523 a 0.93,0.93 0 0 0 -1.3129,0.078 l -2.5893,2.9164 a 0.93,0.93 0 0 0 0.078,1.3129 l 0.2842,0.2523 a 0.93,0.93 0 0 0 1.3129,-0.078 z"
       id="path67"
       style="fill:#000000;fill-opacity:1" />
    <path
       fill="#000000"
       d="m 224.11,96.78 -4.59,-2.75 a 0.38,0.38 0 0 1 -0.15,-0.47 l 2.29,-5.4 a 0.38,0.38 0 0 1 0.67,-0.05 l 5.2,8.12 a 0.38,0.38 0 0 1 -0.32,0.59 l -2.9,0.02 a 0.38,0.38 0 0 1 -0.2,-0.06 z"
       id="path68"
       style="fill:#000000;fill-opacity:1" />
    <path
       fill="#000000"
       d="m 287.47,385.72 q -6.13,-1.11 -12.25,-2.16 c -3.57,-0.61 -8.37,0.03 -10.54,3.21 -0.73,1.07 -0.73,2.74 0.26,3.66 2.21,2.04 4.41,0.93 6.54,-0.77 q 2.38,-1.9 1.35,0.96 c -2.2,6.15 -14.32,7.86 -13.54,-1.05 0.45,-5.07 5.78,-8.48 10.42,-9.67 4.51,-1.16 8.69,-1.46 13.28,-0.7 5.32,0.87 10.99,2 16.28,1.95 q 10.36,-0.08 20.38,-3.18 0.5,-0.15 0.81,0.27 0.26,0.36 0.01,0.8 -0.14,0.26 -0.41,0.39 -12.05,6.19 -25.23,6.63 a 1.36,1.34 -71.4 0 0 -1.01,0.51 q -4.5,5.69 -7.06,13.43 -0.21,0.64 0.45,0.78 3.6,0.77 6.02,-1.5 0.44,-0.41 1.04,-0.32 0.29,0.05 0.46,0.29 0.31,0.46 0.04,0.95 -1.83,3.28 -4.68,4.61 c -1.49,0.68 -3.02,0.37 -4.6,0.48 q -0.61,0.04 -0.81,0.62 c -2.87,8.46 -7.55,15.99 -14.67,20.17 -8.17,4.81 -18.79,3.23 -23.73,-5.31 q -3.55,-6.14 -0.74,-12.67 1.68,-3.9 5.95,-3.99 c 5.87,-0.14 5.56,8.8 -0.32,8.17 -0.88,-0.09 -1.58,-0.86 -2.38,-0.8 a 0.69,0.68 4.7 0 0 -0.61,0.51 q -0.54,2.09 -0.03,4.02 c 2.02,7.73 10.22,11.06 17.12,6.88 5.51,-3.33 9.33,-11.2 11.46,-17.2 a 0.74,0.73 4.9 0 0 -0.82,-0.97 q -1.97,0.35 -3.64,1.62 a 0.64,0.63 55.7 0 1 -0.93,-0.18 q -0.26,-0.43 -0.01,-0.88 1.94,-3.58 6.22,-4.45 a 2.25,2.24 4.7 0 0 1.63,-1.38 q 3.1,-7.86 8.49,-13.05 a 0.4,0.4 0 0 0 -0.2,-0.68 z"
       id="path103"
       style="fill:#000000;fill-opacity:1" />
    <path
       fill="#000000"
       d="m 165.83,412.54 q -0.83,3.61 1.3,6.64 c 3.82,5.44 11.44,6.75 17.57,5.33 10.02,-2.32 13.1,-15.02 2.08,-18.93 -7.07,-2.51 -22.29,-7.85 -21.37,-17.57 0.77,-8.22 9.56,-11 16.34,-8.86 2.92,0.92 6.89,3.69 9.65,1.02 q 1.82,-1.76 1.96,0.77 0.34,5.67 2.83,12.11 a 0.44,0.44 0 0 1 -0.27,0.58 l -0.3,0.11 a 0.91,0.91 0 0 1 -1.08,-0.41 q -5.52,-9.74 -16.17,-11.28 c -2.16,-0.31 -5.4,0.23 -6.48,2.42 -1.87,3.81 2.97,6.85 5.92,8.22 q 6.28,2.92 12.59,5.98 c 5.6,2.71 8.65,7.55 8.38,13.75 q -0.46,10.62 -10.79,14.66 -7.25,2.84 -14.38,0.8 c -8.06,-2.31 -13.93,-10.02 -10.81,-18.47 1.21,-3.26 6.49,-7.35 9.34,-3.31 2.73,3.85 -1.25,7.84 -5.42,5.99 q -0.72,-0.32 -0.89,0.45 z"
       id="path104"
       style="fill:#000000;fill-opacity:1" />
  </g>
</svg>
