<?xml version="1.0" encoding="UTF-8" standalone="no"?>
<svg
   version="1.1"
   viewBox="0.00 0.00 922.00 814.00"
   id="svg1"
   sodipodi:docname="haas-f1-team.svg"
   inkscape:version="1.3 (0e150ed6c4, 2023-07-21)"
   xmlns:inkscape="http://www.inkscape.org/namespaces/inkscape"
   xmlns:sodipodi="http://sodipodi.sourceforge.net/DTD/sodipodi-0.dtd"
   xmlns="http://www.w3.org/2000/svg"
   xmlns:svg="http://www.w3.org/2000/svg">
  <defs
     id="defs1" />
  <sodipodi:namedview
     id="namedview1"
     pagecolor="#ffffff"
     bordercolor="#000000"
     borderopacity="0.25"
     inkscape:showpageshadow="2"
     inkscape:pageopacity="0.0"
     inkscape:pagecheckerboard="0"
     inkscape:deskcolor="#d1d1d1"
     inkscape:zoom="0.45878525"
     inkscape:cx="461"
     inkscape:cy="406.50827"
     inkscape:window-width="1366"
     inkscape:window-height="705"
     inkscape:window-x="-8"
     inkscape:window-y="-8"
     inkscape:window-maximized="1"
     inkscape:current-layer="svg1" />
  <path
     fill="#ec1a3b"
     d="   M 504.12 0.00   L 524.00 0.00   Q 527.57 0.42 531.17 0.49   Q 536.23 0.59 538.33 0.75   C 548.42 1.55 558.85 2.24 568.36 3.57   Q 658.23 16.08 734.46 64.78   C 745.27 71.68 757.12 80.17 766.81 87.93   Q 859.70 162.20 899.43 274.08   C 901.96 281.22 904.14 288.67 906.27 295.96   Q 915.24 326.62 919.20 359.54   Q 920.15 367.47 920.84 379.49   Q 921.43 389.55 922.00 399.63   L 922.00 418.25   Q 921.14 436.41 919.14 454.49   Q 917.67 467.87 915.03 481.80   Q 905.35 532.82 884.14 577.69   Q 864.51 619.22 839.62 651.82   Q 801.47 701.77 749.62 738.97   Q 735.30 749.25 719.29 758.50   Q 648.26 799.55 566.72 810.23   Q 548.31 812.64 530.29 812.92   C 512.69 813.19 494.66 813.54 477.06 811.59   Q 444.77 808.02 424.20 803.25   Q 324.23 780.10 246.63 712.18   C 236.02 702.90 225.41 692.26 215.88 682.11   Q 205.65 671.22 193.87 656.12   Q 174.65 631.48 159.89 605.27   C 155.81 598.01 152.02 590.06 148.18 582.42   Q 144.03 574.17 140.29 565.18   Q 132.91 547.41 126.81 528.95   C 126.03 526.58 125.02 523.98 122.00 523.99   Q 61.00 524.03 0.00 523.97   L 0.00 521.98   Q 1.21 520.29 3.41 516.42   Q 26.29 476.19 48.50 436.51   Q 52.14 430.01 59.48 430.00   Q 82.65 429.99 107.43 430.01   Q 108.03 430.01 108.02 429.42   Q 107.96 414.77 108.01 401.08   Q 108.04 393.66 108.63 384.87   C 109.71 368.77 111.51 353.12 114.21 336.91   Q 123.20 283.01 146.73 233.38   Q 190.02 142.11 270.90 81.27   Q 295.72 62.60 319.55 49.91   Q 330.22 44.23 341.35 38.79   Q 368.32 25.60 398.99 16.73   Q 429.91 7.78 461.01 3.55   C 468.69 2.51 477.70 1.94 485.99 1.08   Q 489.98 0.67 495.05 0.51   Q 499.59 0.35 504.12 0.00   Z   M 469.32 523.41   Q 491.74 480.96 512.37 442.53   Q 515.56 436.59 518.95 431.51   A 3.45 3.45 0.0 0 1 521.79 429.99   C 533.04 429.99 544.22 429.54 555.36 430.58   C 565.75 431.55 575.56 433.26 584.17 439.84   C 586.24 441.42 587.36 443.61 588.84 445.67   A 0.43 0.43 0.0 0 0 589.57 445.63   Q 592.63 440.19 595.75 434.82   Q 644.18 351.45 688.86 275.14   Q 718.00 225.37 737.15 193.94   Q 738.41 191.86 738.74 190.49   Q 739.22 188.44 737.57 186.79   Q 684.62 134.13 615.78 110.13   Q 606.86 107.02 597.22 104.34   Q 530.30 85.69 460.70 97.76   Q 410.07 106.54 365.25 131.00   Q 322.92 154.10 290.57 187.08   Q 268.27 209.80 248.01 241.58   C 241.99 251.03 236.80 261.18 231.84 271.32   Q 215.43 304.83 207.97 341.01   Q 202.48 367.63 201.62 389.29   Q 200.96 406.05 200.93 423.45   Q 200.92 426.46 201.75 429.01   A 1.43 1.43 0.0 0 0 203.11 430.00   Q 293.31 430.01 383.65 430.00   C 386.29 430.00 387.92 429.45 389.22 427.25   C 391.06 424.12 392.59 420.83 394.41 417.68   Q 461.52 301.38 528.57 184.55   C 529.95 182.16 531.56 180.04 534.62 180.04   Q 586.20 179.95 629.79 180.03   Q 633.22 180.04 636.95 180.38   A 1.15 1.15 0.0 0 1 637.90 181.95   Q 636.76 184.79 634.87 188.11   Q 551.94 333.59 446.32 519.88   Q 414.99 575.14 386.04 626.33   Q 385.02 628.13 383.73 629.86   A 2.83 2.83 0.0 0 1 381.46 631.00   L 297.92 631.00   A 1.01 1.01 0.0 0 0 297.10 632.60   C 298.38 634.36 300.57 636.23 302.14 637.59   C 308.31 642.92 314.35 648.35 320.74 653.42   Q 384.82 704.27 468.09 717.03   Q 483.99 719.47 499.10 719.86   C 515.50 720.29 533.09 720.42 549.72 718.49   Q 590.20 713.79 627.15 699.50   Q 678.29 679.72 722.04 641.53   Q 775.31 595.04 803.05 531.17   C 816.15 500.99 823.73 468.16 826.95 434.98   C 829.04 413.33 828.17 391.22 825.34 369.52   Q 820.89 335.24 812.17 306.25   C 808.56 294.26 804.42 283.97 798.13 274.48   Q 797.98 274.25 797.74 274.12   A 0.67 0.66 27.9 0 0 796.82 274.40   Q 795.43 277.16 793.84 279.94   Q 727.95 395.37 659.00 515.58   Q 628.53 568.72 596.21 625.48   Q 594.59 628.32 592.38 630.28   A 2.95 2.91 -65.2 0 1 590.46 631.00   L 487.52 631.00   Q 486.65 631.00 486.96 630.18   Q 487.27 629.38 487.66 628.68   Q 500.65 605.49 512.54 584.43   C 517.77 575.16 523.93 565.64 528.03 557.24   Q 530.09 553.03 531.34 547.37   Q 532.45 542.37 530.98 537.49   Q 528.17 528.19 518.91 525.02   Q 515.14 523.73 504.60 523.89   Q 487.38 524.15 469.64 523.96   Q 469.03 523.95 469.32 523.41   Z   M 280.05 614.56   L 330.93 526.19   A 0.82 0.82 0.0 0 0 330.22 524.96   L 224.44 525.02   A 0.37 0.37 0.0 0 0 224.10 525.53   Q 237.45 557.78 257.02 585.75   Q 267.48 600.70 279.12 614.66   A 0.58 0.56 -50.4 0 0 280.05 614.56   Z"
     id="path1"
     style="fill:#000000;fill-opacity:1" />
</svg>
