<?xml version="1.0" encoding="UTF-8" standalone="no"?>
<svg
   version="1.1"
   viewBox="0 0 1448 780"
   id="svg3"
   sodipodi:docname="mclaren.svg"
   inkscape:version="1.3 (0e150ed6c4, 2023-07-21)"
   width="1448"
   height="780"
   xmlns:inkscape="http://www.inkscape.org/namespaces/inkscape"
   xmlns:sodipodi="http://sodipodi.sourceforge.net/DTD/sodipodi-0.dtd"
   xmlns="http://www.w3.org/2000/svg"
   xmlns:svg="http://www.w3.org/2000/svg">
  <defs
     id="defs3" />
  <sodipodi:namedview
     id="namedview3"
     pagecolor="#ffffff"
     bordercolor="#000000"
     borderopacity="0.25"
     inkscape:showpageshadow="2"
     inkscape:pageopacity="0.0"
     inkscape:pagecheckerboard="0"
     inkscape:deskcolor="#d1d1d1"
     inkscape:zoom="0.29212707"
     inkscape:cx="724"
     inkscape:cy="724"
     inkscape:window-width="1366"
     inkscape:window-height="705"
     inkscape:window-x="-8"
     inkscape:window-y="-8"
     inkscape:window-maximized="1"
     inkscape:current-layer="svg3" />
  <path
     fill="#ff9800"
     d="M 782.15092,352.78011 Q 756.09999,342.12292 728.14458,335.7286 c -37.22125,-8.50602 -76.20883,-12.84785 -114.70302,-14.39709 -9.73949,-0.39471 -19.18296,-0.3059 -28.7843,-0.6118 q -5.67397,-0.18749 -11.61437,-0.0592 -26.80088,0.56247 -37.62583,1.04599 -72.43934,3.17742 -142.31306,12.03868 -185.86942,23.58399 -363.094671,87.97122 c -1.391357,0.50326 -2.6643,1.46044 -4.134598,1.49004 q -1.884745,0.0395 -0.35524,-1.06572 3.128085,-2.24985 6.275905,-4.19381 20.633519,-12.74916 39.707929,-24.39314 116.271995,-71.03811 238.375855,-130.91578 19.78489,-9.69015 42.21434,-20.46576 2.388,-1.14466 4.7168,-2.23999 52.90114,-24.75825 105.6148,-47.06929 112.21635,-47.48373 225.94246,-85.36612 C 760.61943,83.439179 834.27251,62.32214 908.64594,45.15221 q 48.56919,-11.219661 99.16126,-19.972378 c 50.6908,-8.762585 99.2797,-14.722721 149.8027,-17.3870201 q 25.7648,-1.361753 34.3004,-0.858497 c 9.2757,0.542728 17.4463,0.97691 27.6101,1.263076 q 36.1358,0.986777 68.0383,5.9009301 16.1535,2.476811 34.0931,7.223211 c 42.4315,11.219661 87.0042,34.033958 98.5693,79.909248 q 3.7694,14.93981 2.7136,31.05389 -1.1545,17.55477 -6.5423,35.01087 c -7.5489,24.43261 -19.0448,46.99034 -33.1755,69.31125 q -13.6274,21.52162 -26.7318,38.56327 -34.9813,45.50031 -75.2221,85.93846 c -4.3813,4.41089 -8.3876,9.23623 -12.9958,13.49911 -9.1672,8.50603 -17.8804,17.64359 -27.0575,26.11014 -10.7657,9.92698 -21.5808,20.13026 -32.4945,29.91909 -54.2728,48.65801 -112.0289,95.451 -169.9231,139.42181 q -61.44671,46.67457 -125.81421,91.92819 -75.03457,52.75313 -142.21438,96.82262 -11.18019,7.34162 -20.4263,13.86422 -1.97355,1.40123 -1.28281,-0.9177 0.26643,-0.89797 0.8881,-1.66766 35.06021,-43.69451 66.1141,-92.9051 20.19933,-32.02093 36.10619,-65.29507 16.91337,-35.35624 25.88317,-70.31777 7.03573,-27.40282 6.47326,-55.38783 -0.21709,-10.98283 -1.5591,-19.71581 -6.42393,-41.61241 -35.69175,-71.65979 c -17.71266,-18.18631 -41.20783,-32.23802 -65.11745,-42.02686 z"
     id="path3"
     style="fill:#000000;fill-opacity:1;stroke-width:0.986778" />
</svg>
