<?xml version="1.0" encoding="UTF-8" standalone="no"?>
<svg
   version="1.1"
   viewBox="0 0 500 500"
   id="svg29"
   sodipodi:docname="mercedes.svg"
   width="500"
   height="500"
   inkscape:version="1.3 (0e150ed6c4, 2023-07-21)"
   xmlns:inkscape="http://www.inkscape.org/namespaces/inkscape"
   xmlns:sodipodi="http://sodipodi.sourceforge.net/DTD/sodipodi-0.dtd"
   xmlns="http://www.w3.org/2000/svg"
   xmlns:svg="http://www.w3.org/2000/svg">
  <defs
     id="defs29" />
  <sodipodi:namedview
     id="namedview29"
     pagecolor="#ffffff"
     bordercolor="#000000"
     borderopacity="0.25"
     inkscape:showpageshadow="2"
     inkscape:pageopacity="0.0"
     inkscape:pagecheckerboard="0"
     inkscape:deskcolor="#d1d1d1"
     inkscape:zoom="0.40202442"
     inkscape:cx="351.96867"
     inkscape:cy="155.46319"
     inkscape:window-width="1366"
     inkscape:window-height="705"
     inkscape:window-x="-8"
     inkscape:window-y="-8"
     inkscape:window-maximized="1"
     inkscape:current-layer="svg29" />
  <g
     id="g29"
     transform="matrix(1.0270854,0,0,1.0270854,3.2380687,3.2280921)">
    <path
       fill="#231f20"
       d="M 469.84426,240.26426 A 229.58972,229.58972 0 0 1 240.25454,469.85397 229.58972,229.58972 0 0 1 10.664822,240.26426 229.58972,229.58972 0 0 1 240.25454,10.674539 229.58972,229.58972 0 0 1 469.84426,240.26426 Z m -8.96931,-42.38791 C 438.66456,88.033156 340.18067,10.303679 227.93376,16.306114 158.11596,20.028448 94.218175,56.716102 54.742205,114.54277 -9.8835597,209.19444 8.1786883,334.07806 93.201745,409.56864 q 0.28844,0.24724 0.53568,-0.0275 l 0.24724,-0.24724 q 0.0412,-0.0549 0,-0.10988 C 43.437845,358.49987 17.367771,288.21506 24.702554,217.27095 35.196515,115.87512 116.71701,35.219967 217.68704,24.629858 331.03279,12.762343 431.38472,90.917621 460.10576,198.34336 q 0.0275,0.10988 0.13735,0.0824 l 0.34339,-0.0824 a 0.39833095,0.39833095 0 0 0 0.28845,-0.46701 z M 205.97061,215.88366 236.32618,33.942561 q 0.15109,-0.86534 -0.74172,-0.837869 -76.08121,3.021821 -131.88875,51.769287 -10.329145,9.02426 -19.092425,19.092411 -40.50613,46.52231 -49.35183,107.78286 -1.56585,10.75494 -1.78562,23.87239 -0.2335,13.35095 0.74172,23.51526 3.76354,39.22873 24.22951,80.14694 0.46701,0.93401 1.26367,0.27471 l 142.616215,-116.93074 11.20821,6.48318 q 0.64557,0.37086 0.055,0.8104 L 57.049775,344.86047 a 0.4944798,0.4944798 0 0 0 -0.12362,0.67304 l 0.24724,0.35712 q 0.53569,0.75546 1.33235,0.30219 L 236.40859,246.03319 a 0.31591765,0.31591765 0 0 1 0.46701,0.27471 l -0.28845,35.67122 -172.779485,64.81806 a 0.86533964,0.86533964 0 0 0 -0.4258,1.26367 q 13.59819,22.38895 31.71538,39.80563 48.445295,46.56351 115.255005,57.01626 12.15596,1.89551 26.77059,2.08781 71.41112,0.90654 129.58118,-43.1571 30.13579,-22.82849 50.28584,-55.76633 0.56316,-0.93402 -0.45327,-1.30488 l -172.55971,-64.68071 -0.46701,-35.60254 q 0,-0.72798 0.63183,-0.37086 l 178.53468,100.25578 a 0.76919079,0.74171969 35.8 0 0 0.92028,-0.13736 l 0.26098,-0.27471 q 0.32965,-0.34339 -0.0549,-0.6181 L 266.70921,229.75656 a 0.3845954,0.39833095 48.3 0 1 0.0412,-0.65931 l 11.37303,-6.4557 142.84972,116.98567 q 0.65931,0.53569 1.07138,-0.21976 18.4331,-34.50371 23.66635,-73.26543 1.8955,-14.07894 1.71694,-27.05903 -0.90654,-65.23013 -36.41294,-116.13408 -40.58855,-58.197521 -109.34871,-80.311756 -14.2575,-4.587674 -33.34992,-7.59576 -3.95584,-0.618099 -8.55725,-0.975224 c -4.95853,-0.384595 -9.66982,-1.222463 -14.66956,-1.01643 q -0.75546,0.02747 -0.63184,0.769191 l 29.84735,182.559199 -30.38303,17.88368 A 0.37085985,0.3571243 74.4 0 1 243.3725,233.9459 L 241.16109,29.588391 q 0,-0.824133 -0.83787,-0.879075 l -0.43954,-0.02747 a 0.39833095,0.3845954 4.3 0 0 -0.41206,0.343389 L 217.81066,221.89983 q -0.0824,0.70051 -0.68678,0.35712 z m 220.73029,132.50684 -3.04929,0.20604 q -0.60437,0.0412 -0.92029,0.54942 -36.89368,59.29637 -99.569,86.13563 C 225.57124,477.07887 113.5441,439.86927 58.423325,349.64044 q -0.63183,-1.01643 -1.82682,-1.14005 l -2.19769,-0.2335 q -1.38729,-0.13736 -0.72799,1.0851 25.93272,47.56621 68.773905,75.94386 c 63.08738,41.79728 144.60787,45.93168 212.39281,13.32348 65.75208,-31.63297 111.83485,-93.96489 122.7134,-166.47486 q 7.88421,-52.48354 -10.69999,-101.24474 -20.21873,-53.06043 -63.41703,-88.841538 -2.37625,-1.977919 -4.84865,-3.667392 -0.27471,-0.178562 -0.48075,0.06868 v 0.01373 q -0.17856,0.219769 0.0275,0.425802 c 16.24916,15.315137 31.38573,31.893948 43.07469,50.505618 q 26.26237,41.83849 30.74016,92.48146 c 3.76354,42.42911 -5.81014,83.69071 -26.07008,121.28491 q -0.37086,0.70051 0,1.38729 l 1.45597,2.66469 q 0.60437,1.08511 -0.63183,1.16752 z M 54.604845,345.16265 a 2.6372256,2.6646967 42.3 0 0 -0.0962,-2.2801 q -16.08433,-30.02591 -22.56751,-63.48571 -0.0687,-0.37086 -0.43953,-0.31592 l -0.343392,0.0549 q -0.04121,0.0137 -0.04121,0.0549 4.436582,35.95967 21.509872,68.1146 0.5769,1.0851 1.07138,-0.0412 z"
       id="path10"
       style="fill:#000000;fill-opacity:1;stroke-width:1.37355" />
    <path
       fill="#231f20"
       d="m 229.23863,229.89392 q -0.39833,-0.23351 -0.37086,-0.70052 L 238.1118,79.791826 q 0.0275,-0.302182 0.32965,-0.288447 l 0.39833,0.01374 q 0.0412,0 0.0412,0.233504 l -1.77189,154.401317 a 0.23350435,0.23350435 0 0 1 -0.35712,0.19229 z"
       id="path14"
       style="fill:#000000;fill-opacity:1;stroke-width:1.37355" />
    <path
       fill="#231f20"
       d="m 247.31462,240.08569 9.68356,-5.43927 a 0.2197688,0.2197688 0 0 1 0.2335,0 l 133.24857,89.58325 a 0.2197688,0.2197688 0 0 1 0.0687,0.30218 l -0.21977,0.35713 a 0.2197688,0.2197688 0 0 1 -0.30218,0.0687 L 247.31462,240.47029 a 0.2197688,0.2197688 0 0 1 0,-0.3846 z"
       id="path15"
       style="fill:#000000;fill-opacity:1;stroke-width:1.37355" />
    <path
       fill="#231f20"
       d="m 233.15326,239.92087 q 0.65931,0.37086 0.0137,0.75545 -21.68843,12.77406 -42.90986,25.27341 -0.21977,0.12362 -0.35712,-0.0824 l -0.0137,-0.0137 q -0.15109,-0.21977 0.0549,-0.39834 18.47432,-15.1091 35.42399,-29.06442 0.64557,-0.53569 1.37355,-0.12362 z"
       id="path16"
       style="fill:#000000;fill-opacity:1;stroke-width:1.37355" />
  </g>
</svg>
