<?xml version="1.0" encoding="UTF-8" standalone="no"?>
<svg
   version="1.1"
   viewBox="0.00 0.00 2393.00 875.00"
   id="svg29"
   sodipodi:docname="red-bull.svg"
   inkscape:version="1.3 (0e150ed6c4, 2023-07-21)"
   xmlns:inkscape="http://www.inkscape.org/namespaces/inkscape"
   xmlns:sodipodi="http://sodipodi.sourceforge.net/DTD/sodipodi-0.dtd"
   xmlns="http://www.w3.org/2000/svg"
   xmlns:svg="http://www.w3.org/2000/svg">
  <defs
     id="defs29" />
  <sodipodi:namedview
     id="namedview29"
     pagecolor="#ffffff"
     bordercolor="#000000"
     borderopacity="0.25"
     inkscape:showpageshadow="2"
     inkscape:pageopacity="0.0"
     inkscape:pagecheckerboard="0"
     inkscape:deskcolor="#d1d1d1"
     inkscape:zoom="0.17676557"
     inkscape:cx="1196.5"
     inkscape:cy="438.43381"
     inkscape:window-width="1366"
     inkscape:window-height="705"
     inkscape:window-x="-8"
     inkscape:window-y="-8"
     inkscape:window-maximized="1"
     inkscape:current-layer="svg29" />
  <path
     fill="#ffc800"
     d="   M 1542.43 681.66   C 1522.57 709.77 1498.46 735.52 1472.79 757.34   C 1400.78 818.51 1311.31 854.24 1217.22 858.76   Q 1141.06 862.42 1069.69 840.34   C 983.79 813.78 908.31 760.54 854.27 688.63   A 0.28 0.27 43.0 0 0 853.82 688.64   Q 850.89 693.22 848.02 697.55   C 840.80 708.47 827.77 714.14 814.52 715.58   Q 806.48 716.44 797.80 716.83   Q 795.81 716.92 793.81 717.91   C 769.24 730.04 744.84 738.55 717.42 747.15   Q 696.38 753.75 676.51 746.85   C 662.82 742.10 651.53 732.12 643.90 719.74   Q 640.61 714.39 637.52 708.78   Q 637.22 708.23 636.60 708.29   C 626.01 709.34 615.78 707.74 608.37 699.85   Q 606.13 697.47 598.57 684.54   Q 589.97 669.83 583.54 658.46   Q 579.72 651.72 580.16 643.07   Q 580.84 629.93 591.13 622.64   C 596.89 618.55 605.89 617.58 612.77 616.27   Q 631.00 612.78 647.57 612.64   Q 655.69 612.57 663.90 615.14   Q 664.42 615.30 664.83 614.92   Q 673.29 606.91 684.29 607.27   A 0.32 0.32 0.0 0 0 684.54 606.74   L 677.10 598.00   A 0.89 0.89 0.0 0 0 676.04 597.77   Q 660.32 605.09 642.75 604.23   C 631.51 603.68 617.24 602.61 603.78 601.08   Q 587.03 599.17 571.18 598.58   C 563.96 598.31 556.24 598.98 549.12 600.12   C 534.96 602.37 520.83 604.68 506.35 604.40   Q 505.79 604.38 505.58 604.90   Q 502.18 613.47 498.58 621.60   Q 488.80 643.64 475.42 658.88   Q 467.09 668.34 454.82 674.60   Q 441.89 681.18 429.09 688.34   Q 417.64 694.74 411.77 696.60   C 398.26 700.90 383.08 701.59 369.17 698.50   Q 365.01 697.58 361.27 696.92   C 351.86 695.27 342.74 693.84 333.23 694.10   Q 327.14 694.26 322.63 695.93   Q 320.61 696.68 316.34 700.59   Q 311.37 705.15 306.59 709.59   C 287.31 727.51 259.43 740.67 232.83 731.59   A 1.97 1.96 24.1 0 0 230.48 732.48   Q 226.38 739.81 221.86 746.80   C 215.19 757.11 206.99 763.98 195.47 768.62   C 183.54 773.44 170.36 773.38 157.82 770.80   C 149.56 769.10 141.74 767.16 132.99 766.53   Q 130.99 766.39 129.29 767.23   C 122.03 770.85 114.80 768.67 107.48 766.68   Q 94.86 763.24 84.44 757.94   C 77.54 754.44 73.09 746.99 72.53 739.26   Q 71.60 726.53 80.08 717.02   Q 81.13 715.85 81.29 714.36   Q 82.20 705.74 82.98 697.01   Q 83.39 692.43 85.72 687.85   Q 93.94 671.70 110.48 664.33   C 112.09 663.61 113.63 663.36 115.32 662.99   Q 115.87 662.87 115.98 662.32   Q 118.28 650.99 128.90 642.75   Q 142.48 632.22 155.42 624.29   C 164.68 618.62 177.37 618.18 186.72 624.60   Q 196.14 631.07 202.01 639.87   Q 202.34 640.37 202.82 640.01   Q 208.42 635.82 210.75 629.95   Q 215.60 617.75 220.67 605.21   C 225.40 593.50 232.04 583.55 244.37 580.11   Q 249.67 578.63 258.93 578.30   Q 264.26 578.11 269.26 577.71   Q 274.00 577.34 277.89 575.88   Q 287.79 572.15 295.95 567.26   A 0.65 0.65 0.0 0 0 296.21 566.44   Q 290.14 552.44 286.03 538.21   Q 283.89 530.82 283.17 521.90   Q 282.31 511.20 282.16 500.53   Q 282.15 499.92 281.54 499.99   Q 280.08 500.15 278.65 500.44   Q 265.85 503.05 253.00 503.03   Q 206.04 502.97 171.79 472.64   C 156.42 459.03 145.93 440.41 141.73 419.97   C 136.50 394.48 139.17 366.79 152.28 344.20   Q 156.36 337.18 164.29 328.09   Q 181.33 308.56 201.41 292.28   Q 202.39 291.48 203.28 290.32   Q 203.72 289.74 203.00 289.69   Q 189.75 288.80 176.10 281.06   C 158.18 270.90 143.12 254.18 134.62 234.99   Q 130.20 225.00 128.85 215.94   Q 125.95 196.32 133.86 178.75   C 137.50 170.65 143.62 162.89 148.45 154.93   A 0.56 0.55 29.5 0 1 149.18 154.73   C 157.46 159.11 166.26 163.64 173.97 168.57   C 182.39 173.94 190.72 180.54 200.29 185.14   Q 204.61 187.22 211.04 188.28   C 228.22 191.13 245.02 195.16 261.01 201.55   C 281.58 209.77 297.84 222.62 304.29 244.16   Q 311.21 267.29 302.33 289.42   Q 298.75 298.36 290.40 308.03   Q 281.91 317.85 273.42 325.41   Q 259.39 337.89 243.21 351.67   C 235.76 358.01 227.41 365.15 222.04 373.17   Q 213.19 386.40 215.49 402.09   C 217.10 413.13 226.84 421.75 236.95 425.29   Q 243.90 427.72 253.27 426.54   Q 266.01 424.92 277.57 419.98   Q 282.82 417.73 287.99 415.08   Q 298.99 409.44 311.10 402.10   Q 315.63 399.36 319.83 396.15   C 337.67 382.54 355.57 367.89 374.97 356.96   C 383.03 352.42 391.96 348.56 401.10 346.14   Q 414.27 342.64 424.53 341.58   Q 438.71 340.13 448.44 339.02   C 456.33 338.13 463.92 335.61 471.23 331.66   C 484.37 324.54 495.20 314.69 506.79 304.53   Q 540.74 274.78 586.53 273.83   Q 591.51 273.73 596.43 273.46   A 1.52 1.49 22.9 0 0 597.31 273.11   Q 600.11 270.77 602.47 268.54   C 611.63 259.89 620.55 250.84 630.24 243.86   Q 640.63 236.37 652.88 231.07   Q 666.93 224.98 682.98 220.16   Q 691.61 217.57 699.80 214.86   C 707.15 212.44 714.54 209.29 721.69 206.44   Q 728.34 203.78 736.02 198.98   Q 750.57 189.90 763.39 182.03   C 768.75 178.74 774.36 176.04 780.44 174.21   Q 808.28 165.84 836.78 170.73   Q 845.54 172.24 853.37 175.48   Q 853.86 175.68 854.19 175.25   C 900.73 113.87 962.03 65.73 1033.19 36.61   Q 1115.30 3.01 1204.10 4.66   Q 1275.33 5.98 1342.85 30.52   Q 1352.36 33.98 1361.50 37.88   Q 1474.03 85.94 1545.37 186.15   Q 1545.97 186.99 1546.72 186.28   Q 1555.00 178.57 1564.26 172.50   C 1573.34 166.54 1583.20 162.53 1594.13 161.67   C 1615.61 159.99 1636.50 165.87 1654.76 177.30   Q 1665.76 184.18 1676.22 192.55   Q 1681.08 196.44 1685.08 200.70   C 1688.56 204.39 1691.88 209.14 1695.79 213.22   C 1698.13 215.67 1701.98 215.97 1705.01 216.60   C 1728.44 221.50 1752.94 228.47 1774.63 239.44   C 1784.42 244.39 1794.24 251.11 1803.32 257.64   Q 1813.41 264.90 1823.41 272.01   Q 1826.24 274.03 1830.74 274.67   Q 1838.41 275.77 1845.23 277.00   Q 1863.38 280.28 1879.40 289.11   C 1892.33 296.24 1905.07 306.11 1917.66 315.04   Q 1925.54 320.62 1931.37 323.13   Q 1938.41 326.16 1948.88 328.49   C 1963.10 331.65 1978.25 334.05 1991.35 338.72   Q 1999.89 341.77 2008.23 344.96   C 2025.56 351.60 2040.47 359.66 2057.87 371.08   Q 2078.33 384.52 2099.84 398.41   Q 2115.66 408.62 2128.67 414.24   Q 2143.88 420.82 2160.70 419.40   Q 2168.74 418.72 2173.88 415.68   Q 2177.16 413.74 2180.46 409.90   Q 2185.60 403.95 2184.93 397.74   C 2183.59 385.37 2175.43 373.19 2167.13 363.86   Q 2158.05 353.66 2148.39 344.61   Q 2135.49 332.53 2124.11 320.40   Q 2117.54 313.39 2111.03 304.38   C 2098.21 286.64 2093.38 263.36 2102.28 242.76   C 2109.04 227.11 2121.58 214.67 2136.27 205.98   Q 2151.12 197.21 2167.71 192.10   Q 2175.43 189.72 2184.41 187.87   Q 2195.60 185.56 2201.08 184.01   C 2206.04 182.61 2211.24 180.10 2215.04 176.37   C 2219.47 172.01 2223.76 167.88 2229.76 166.05   C 2238.67 163.34 2248.21 166.55 2254.07 173.68   Q 2258.21 178.71 2259.96 186.89   C 2263.00 201.14 2263.19 216.69 2260.42 230.79   C 2255.00 258.28 2237.00 279.43 2210.73 289.19   Q 2204.59 291.47 2198.41 292.96   A 0.40 0.40 0.0 0 0 2198.24 293.65   C 2219.12 312.01 2237.99 334.44 2249.28 359.41   Q 2254.89 371.82 2258.11 387.27   C 2261.92 405.56 2258.85 424.98 2250.71 441.11   C 2238.28 465.73 2216.08 486.20 2189.06 494.72   Q 2162.06 503.23 2135.09 499.74   A 0.31 0.31 0.0 0 0 2134.74 500.11   Q 2135.52 504.06 2135.82 508.11   C 2137.37 528.88 2133.17 549.07 2125.22 569.31   Q 2124.96 569.96 2125.62 570.20   Q 2129.14 571.51 2132.45 571.92   Q 2139.24 572.77 2147.18 573.09   Q 2156.64 573.47 2162.39 575.55   C 2173.21 579.46 2180.49 588.42 2184.79 598.88   C 2186.72 603.56 2188.51 608.32 2189.91 613.29   Q 2193.04 624.45 2196.14 635.79   Q 2196.48 637.06 2197.41 636.14   C 2200.00 633.57 2202.44 630.97 2205.36 628.80   C 2216.98 620.14 2231.89 617.71 2244.04 626.60   C 2257.34 636.33 2278.81 647.54 2282.49 664.68   Q 2282.61 665.24 2283.15 665.40   C 2286.12 666.32 2289.33 667.22 2292.03 668.62   Q 2308.20 676.98 2311.65 695.51   Q 2313.09 703.22 2313.97 711.18   Q 2314.32 714.35 2315.79 717.57   Q 2317.48 721.26 2319.02 724.76   C 2324.26 736.70 2323.14 750.59 2312.28 758.97   Q 2308.49 761.90 2300.14 764.50   Q 2290.96 767.36 2279.56 771.03   C 2273.16 773.09 2266.04 771.49 2260.28 767.70   A 1.58 1.58 0.0 0 0 2259.05 767.49   Q 2255.50 768.35 2252.05 768.57   Q 2241.65 769.22 2232.31 769.74   C 2216.68 770.61 2201.72 767.94 2189.73 757.38   C 2182.86 751.32 2177.19 743.75 2172.12 736.28   Q 2171.77 735.76 2171.22 736.07   Q 2157.91 743.62 2142.53 742.32   Q 2125.67 740.90 2111.38 728.97   Q 2100.65 720.02 2090.96 714.11   C 2069.08 700.79 2044.08 695.97 2018.80 701.25   Q 2010.84 702.91 2001.37 702.00   Q 1982.05 700.14 1965.64 689.99   Q 1956.69 684.45 1948.81 678.91   Q 1930.22 665.81 1921.29 645.96   C 1915.28 632.58 1912.71 617.90 1910.02 603.32   Q 1909.90 602.67 1909.26 602.87   C 1896.10 606.98 1881.80 607.41 1868.43 606.30   C 1857.19 605.36 1846.22 604.38 1834.83 604.21   Q 1823.44 604.04 1811.00 603.78   Q 1799.29 603.54 1787.18 605.76   Q 1771.85 608.58 1757.69 610.20   Q 1735.84 612.71 1713.69 609.77   Q 1711.26 609.44 1713.00 611.17   C 1715.82 613.99 1717.76 617.71 1719.85 621.20   Q 1720.14 621.68 1720.68 621.52   Q 1726.26 619.84 1729.95 619.80   Q 1754.68 619.59 1772.23 619.79   C 1789.61 619.98 1801.41 634.71 1799.31 651.46   C 1798.69 656.39 1796.70 660.97 1794.04 665.22   Q 1790.92 670.19 1788.02 675.28   Q 1780.74 688.02 1770.74 697.88   Q 1763.13 705.38 1753.30 706.70   Q 1752.61 706.79 1752.44 707.47   Q 1746.46 731.02 1724.15 744.73   C 1707.20 755.14 1687.18 751.28 1669.75 744.81   Q 1662.06 741.95 1656.21 740.38   Q 1638.01 735.47 1620.77 730.60   C 1615.20 729.02 1609.07 727.64 1604.09 724.83   C 1598.34 721.60 1594.50 717.59 1590.38 713.30   A 1.81 1.80 63.0 0 0 1588.76 712.77   Q 1562.60 717.54 1549.92 697.27   Q 1546.05 691.08 1543.13 681.76   Q 1542.89 681.01 1542.43 681.66   Z   M 276.96 651.67   Q 281.13 649.79 285.43 648.02   Q 294.81 644.16 306.80 641.66   Q 321.33 638.63 337.00 637.89   Q 355.07 637.04 363.62 636.11   Q 375.18 634.85 387.51 631.94   Q 393.72 630.48 400.92 627.86   Q 401.49 627.66 402.00 627.38   Q 402.48 627.12 403.02 627.13   Q 403.45 627.14 403.83 626.95   Q 406.50 625.65 409.25 624.47   Q 422.81 618.61 432.87 608.40   Q 455.46 585.51 462.31 553.99   Q 464.70 542.99 466.31 532.02   Q 467.64 522.96 469.09 514.06   Q 470.67 504.38 472.81 495.86   Q 473.60 492.68 476.75 493.59   Q 477.61 493.83 478.17 494.00   Q 481.36 494.92 480.73 498.18   Q 479.76 503.14 478.81 509.28   Q 477.32 518.89 476.56 528.74   Q 475.51 542.27 477.67 555.59   C 478.40 560.05 479.61 564.19 481.09 568.30   Q 482.64 572.61 486.42 576.37   Q 488.01 577.95 490.22 579.15   Q 492.45 580.37 494.52 581.17   Q 502.41 584.23 514.10 583.60   Q 522.14 583.17 529.32 582.05   Q 552.31 578.45 561.65 577.94   Q 575.42 577.18 591.00 580.25   Q 603.58 582.74 617.00 585.27   Q 623.11 586.41 636.53 587.19   C 646.58 587.77 652.18 588.44 659.42 586.38   C 662.44 585.51 669.11 583.05 669.60 579.39   Q 669.92 577.03 669.29 574.70   Q 668.09 570.19 666.40 564.79   C 664.68 559.31 662.67 551.01 667.48 546.81   Q 669.41 545.13 671.56 546.45   Q 672.01 546.72 672.16 547.22   Q 674.52 555.13 676.77 562.26   Q 680.05 572.67 687.44 580.56   Q 697.31 591.10 707.58 598.42   Q 717.87 605.77 729.05 611.68   C 731.42 612.93 733.20 614.63 735.31 616.16   Q 737.61 617.84 739.71 619.87   Q 742.71 622.79 745.62 625.86   Q 757.15 638.04 759.46 654.30   Q 760.19 659.46 757.86 663.81   Q 755.45 668.31 751.21 671.79   Q 746.02 676.03 740.32 678.61   Q 734.53 681.22 728.30 683.57   Q 720.35 686.57 711.95 687.98   Q 699.80 690.01 691.20 681.56   Q 690.96 681.33 690.63 681.38   Q 690.62 681.38 690.62 681.37   L 690.62 681.03   Q 690.62 680.72 690.39 680.52   Q 685.57 676.26 682.59 669.91   Q 677.61 659.30 671.19 649.79   Q 670.96 649.45 670.81 649.07   C 670.52 648.34 669.77 647.91 669.31 647.15   C 663.08 636.83 653.91 631.26 641.44 631.86   Q 632.58 632.28 623.26 633.93   Q 622.75 634.02 622.27 634.23   Q 621.79 634.44 621.27 634.45   Q 620.51 634.48 619.62 634.67   Q 614.41 635.80 609.57 636.67   C 605.36 637.42 601.68 638.76 600.91 643.44   Q 600.47 646.09 601.83 648.61   Q 603.08 650.93 604.44 653.30   Q 612.67 667.60 621.90 683.09   C 623.75 686.21 626.01 687.99 629.70 687.90   Q 634.75 687.78 640.14 687.40   Q 648.94 686.77 652.85 693.81   Q 657.48 702.15 662.81 710.89   Q 663.63 712.23 664.71 713.38   C 666.25 715.04 667.56 716.88 669.23 718.45   Q 681.43 729.80 697.84 729.62   Q 704.24 729.55 714.51 726.27   C 740.02 718.15 765.14 709.38 788.78 697.14   Q 790.56 696.21 792.27 696.20   Q 803.17 696.12 814.39 694.55   C 823.38 693.30 828.50 689.86 833.55 681.91   Q 840.24 671.39 845.07 662.56   Q 847.70 657.77 850.11 653.13   C 854.53 644.59 857.32 635.58 854.93 626.15   Q 853.77 621.57 848.57 613.40   Q 842.95 604.60 838.06 595.74   Q 831.44 583.73 826.42 569.53   Q 825.91 568.10 825.07 566.89   Q 824.78 566.48 824.31 566.31   C 815.99 563.46 808.91 559.74 800.10 561.79   Q 796.37 562.66 793.99 566.29   Q 793.70 566.74 793.94 567.21   Q 809.08 596.75 823.60 625.70   C 826.66 631.82 828.29 639.01 825.77 645.25   Q 823.44 651.00 819.86 656.89   Q 815.24 664.49 809.93 671.61   Q 807.76 674.53 804.92 676.09   A 1.49 1.48 -8.4 0 1 802.75 674.48   L 806.72 656.09   A 0.88 0.08 -84.8 0 1 806.74 655.98   Q 807.45 649.18 808.39 641.20   C 808.72 638.39 808.98 634.45 808.14 631.91   C 805.15 622.89 799.95 614.05 795.06 605.36   Q 786.33 589.84 776.21 572.79   Q 774.09 569.21 773.15 562.19   C 772.04 553.92 780.80 552.02 786.86 550.93   Q 790.13 550.33 793.67 549.51   Q 798.12 548.48 801.78 547.50   Q 808.19 545.79 813.08 543.16   C 814.14 542.59 814.56 541.77 815.51 541.14   Q 816.50 540.49 817.17 539.51   C 825.19 527.77 830.83 514.78 835.28 501.28   Q 835.31 501.19 835.26 501.12   Q 835.22 501.06 835.21 500.98   Q 835.20 500.85 835.25 500.72   Q 837.58 493.74 839.19 486.08   Q 840.41 480.26 841.61 474.44   A 2.26 2.23 75.4 0 1 842.33 473.19   Q 845.53 470.34 846.19 474.26   Q 851.84 507.91 835.64 537.47   Q 833.20 541.91 830.10 546.28   C 827.87 549.41 828.01 553.24 831.10 555.76   Q 832.69 557.05 835.70 557.65   Q 838.41 558.20 840.75 558.15   Q 850.16 557.97 860.08 555.21   Q 866.22 553.50 871.72 550.71   Q 873.75 549.68 876.33 549.71   Q 886.22 549.79 895.24 548.12   Q 905.37 546.24 915.52 544.40   C 917.09 544.11 918.08 544.80 918.67 546.12   Q 918.91 546.64 918.53 547.06   C 910.07 556.48 905.13 567.52 902.22 580.06   Q 901.72 582.24 900.02 583.91   Q 898.11 585.78 896.01 587.62   Q 890.32 592.59 885.06 598.10   C 882.45 600.83 879.90 604.04 877.92 606.95   Q 875.70 610.23 874.19 614.74   Q 873.82 615.82 873.74 616.93   C 873.59 618.91 872.53 620.40 873.04 622.40   C 874.01 626.25 877.77 627.15 881.16 625.62   Q 883.84 624.40 886.31 623.80   C 887.87 623.42 889.25 624.11 890.20 625.27   A 1.79 1.79 0.0 0 1 890.30 627.40   Q 885.75 634.18 880.57 641.55   Q 877.90 645.36 877.44 648.57   Q 876.47 655.27 878.62 662.95   Q 879.49 666.05 879.70 669.19   Q 879.92 672.43 880.90 675.27   Q 882.20 679.02 885.94 681.69   Q 893.76 687.27 903.47 686.57   Q 912.13 685.96 921.68 683.26   Q 933.47 679.93 946.99 674.64   Q 955.83 671.18 962.82 669.91   Q 972.17 668.21 981.50 668.35   Q 991.38 668.49 1001.03 670.10   Q 1003.36 670.49 1005.44 670.27   C 1021.14 668.65 1034.62 658.26 1046.41 647.42   C 1047.66 646.27 1048.86 645.65 1050.63 646.11   Q 1057.83 647.97 1063.14 653.37   Q 1071.01 661.36 1073.20 663.29   Q 1087.68 676.01 1105.38 681.74   Q 1123.42 687.58 1143.43 686.50   C 1149.74 686.16 1149.96 679.58 1145.14 676.95   Q 1138.50 673.31 1130.29 668.95   Q 1123.58 665.39 1114.55 658.76   C 1113.40 657.91 1112.38 656.88 1111.22 656.00   Q 1107.51 653.17 1102.58 647.60   C 1100.54 645.29 1097.74 641.56 1096.87 638.87   Q 1089.79 616.93 1077.58 597.45   Q 1075.18 593.62 1072.54 589.92   Q 1069.83 586.15 1067.69 582.18   Q 1066.98 580.87 1068.38 581.40   Q 1080.47 586.06 1089.23 595.99   Q 1094.51 601.97 1095.95 604.05   Q 1100.88 611.16 1105.63 619.95   Q 1109.51 627.12 1113.99 632.36   Q 1122.39 642.18 1134.10 648.93   Q 1144.79 655.09 1156.51 656.79   C 1160.08 657.31 1171.92 657.88 1174.24 653.99   Q 1176.89 649.56 1172.16 647.16   C 1166.37 644.23 1159.79 641.28 1154.69 637.62   Q 1146.27 631.60 1139.96 623.25   C 1137.29 619.72 1134.66 616.26 1132.35 612.49   Q 1124.95 600.45 1117.74 588.68   Q 1111.44 578.39 1101.90 570.99   C 1100.13 569.62 1097.03 566.62 1096.24 564.53   Q 1084.01 532.08 1075.73 502.31   Q 1072.79 491.74 1070.08 479.72   Q 1065.12 457.73 1062.76 435.27   Q 1062.41 432.03 1062.23 429.18   Q 1061.89 423.65 1060.54 418.21   Q 1055.49 397.88 1044.16 381.29   Q 1027.82 357.38 1007.65 332.41   Q 1001.78 325.15 994.94 316.72   Q 985.00 304.50 974.61 292.88   C 972.03 290.00 969.14 287.63 966.25 285.20   Q 944.42 266.86 923.51 249.60   Q 922.26 248.56 920.97 247.41   C 919.79 246.35 918.45 245.48 917.17 244.41   Q 902.28 231.90 885.81 218.23   Q 879.16 212.71 873.55 208.93   Q 866.85 204.43 860.38 201.00   Q 853.95 197.60 844.51 194.27   Q 836.37 191.40 828.16 190.32   Q 812.02 188.21 795.57 191.67   Q 784.42 194.01 778.13 197.60   Q 767.83 203.47 755.60 211.33   Q 754.73 211.89 753.80 212.42   Q 752.42 213.19 751.12 214.06   Q 742.43 219.91 731.51 224.78   Q 713.85 232.66 692.16 239.12   Q 673.88 244.57 661.81 249.92   Q 660.03 250.70 658.33 251.44   Q 655.18 252.82 652.67 254.41   Q 652.35 254.62 652.01 254.77   Q 644.29 258.29 635.71 266.01   Q 625.21 275.45 613.87 286.18   Q 612.06 287.89 609.97 289.53   Q 607.67 291.33 605.72 292.32   C 603.69 293.35 600.03 294.22 597.42 294.22   Q 588.41 294.25 579.98 294.90   Q 572.90 295.44 565.19 297.06   Q 557.50 298.68 550.87 301.42   Q 534.13 308.34 521.17 319.51   Q 516.26 323.74 511.29 328.20   Q 497.76 340.34 482.81 349.09   Q 471.37 355.79 457.26 358.68   C 456.14 358.92 455.22 358.72 454.15 359.01   Q 452.99 359.33 451.85 359.48   Q 440.66 360.99 428.86 361.95   Q 422.44 362.47 410.89 365.12   Q 397.00 368.30 385.27 375.04   Q 379.46 378.38 373.80 381.99   C 373.10 382.44 372.69 383.12 371.83 383.26   Q 371.27 383.35 371.00 383.86   Q 370.73 384.37 370.17 384.46   Q 369.63 384.55 369.25 384.95   C 368.33 385.90 367.31 386.35 366.27 387.10   Q 352.15 397.37 338.31 408.32   Q 330.26 414.69 322.34 419.55   Q 306.79 429.08 291.15 436.74   Q 287.90 438.32 284.38 439.68   Q 281.00 440.97 277.76 442.19   Q 275.38 443.09 272.82 443.74   Q 270.25 444.38 267.77 445.03   Q 260.67 446.87 251.73 447.53   Q 243.13 448.16 235.84 446.51   Q 220.01 442.94 208.13 430.93   Q 194.06 416.71 194.25 396.14   Q 194.48 371.09 212.36 352.06   Q 214.72 349.55 217.28 347.03   Q 220.04 344.31 222.79 341.92   Q 237.71 328.95 252.88 315.88   C 261.57 308.39 269.86 300.40 277.27 291.24   Q 285.58 280.96 286.27 267.65   Q 287.12 251.24 279.75 239.95   Q 276.36 234.76 272.32 231.59   Q 264.83 225.74 255.02 221.61   Q 239.60 215.12 222.17 211.55   Q 215.16 210.11 207.04 208.70   Q 200.69 207.60 195.44 205.66   C 186.53 202.37 178.24 196.80 170.53 191.15   Q 170.27 190.95 169.94 190.98   Q 169.28 191.05 169.05 190.19   A 0.45 0.39 -85.9 0 0 168.87 189.95   L 156.94 182.31   A 1.21 1.21 0.0 0 0 155.26 182.70   Q 149.49 192.24 148.88 203.53   Q 148.40 212.30 151.24 220.63   Q 153.99 228.66 158.61 236.02   Q 166.12 247.97 176.71 256.44   Q 185.48 263.45 196.05 267.11   Q 201.59 269.04 206.46 269.30   C 214.58 269.73 224.51 268.71 233.22 270.15   Q 238.28 270.98 241.73 276.16   C 242.68 277.58 242.59 278.78 243.02 280.30   C 243.85 283.23 240.90 286.65 238.76 288.27   Q 234.64 291.39 230.09 295.25   Q 220.09 303.75 209.88 312.33   Q 193.31 326.26 178.18 343.86   Q 171.57 351.54 168.06 358.58   Q 164.27 366.17 162.08 376.01   Q 157.83 395.13 162.26 416.25   Q 166.18 434.92 178.01 449.15   C 179.77 451.26 181.61 453.54 183.63 455.43   Q 200.83 471.59 223.22 478.12   Q 246.15 484.80 270.07 480.87   Q 283.61 478.65 298.55 474.52   Q 301.12 473.81 301.38 476.61   Q 302.20 485.33 302.56 497.28   C 302.71 502.09 303.16 506.47 303.32 511.46   Q 303.58 519.98 305.03 528.36   Q 305.77 532.69 308.87 541.58   Q 311.45 549.00 313.81 554.49   Q 317.05 562.02 318.26 566.99   Q 320.12 574.72 314.22 579.65   Q 307.01 585.67 295.62 590.88   Q 292.03 592.52 288.40 594.04   Q 285.13 595.41 281.35 596.55   Q 276.87 597.90 270.01 598.40   Q 262.07 598.97 253.81 599.44   C 250.07 599.65 246.97 600.53 244.73 603.76   Q 242.82 606.53 241.36 609.83   Q 236.80 620.15 232.84 630.48   Q 229.12 640.21 227.41 643.18   Q 224.07 648.95 218.39 654.14   Q 213.04 659.03 203.47 664.70   Q 196.16 669.03 188.56 673.45   A 1.61 1.52 -87.3 0 0 188.02 673.97   Q 185.14 678.67 182.03 683.07   Q 177.92 688.87 172.90 693.71   C 171.25 695.30 169.19 696.76 167.05 697.61   Q 161.91 699.67 156.14 699.99   Q 155.63 700.02 155.28 700.40   Q 153.87 701.96 152.70 703.58   Q 147.28 711.05 144.37 721.10   Q 141.18 732.15 138.68 745.64   Q 138.59 746.13 139.09 746.19   Q 148.25 747.31 157.37 749.49   C 160.67 750.28 164.11 750.73 167.50 751.21   Q 193.89 754.96 206.96 731.58   Q 212.25 722.12 217.36 715.57   C 224.00 707.06 232.62 710.08 241.28 712.46   C 259.28 717.41 278.34 707.17 291.23 695.46   Q 295.67 691.43 300.30 687.19   Q 301.17 686.40 301.90 685.53   C 303.17 684.02 304.85 683.16 306.32 681.85   Q 310.14 678.43 313.82 676.98   Q 320.62 674.29 328.13 673.67   Q 339.23 672.76 350.46 674.29   Q 361.80 675.84 377.09 678.85   C 381.94 679.80 386.84 679.77 391.90 679.47   Q 402.93 678.82 413.02 673.30   Q 429.99 664.02 444.61 656.48   C 450.12 653.64 455.17 650.36 459.27 645.71   Q 470.93 632.47 478.95 614.57   Q 483.23 605.02 487.02 595.51   Q 487.19 595.07 486.82 594.78   L 473.17 584.28   Q 472.27 583.59 471.69 584.56   Q 465.14 595.52 457.41 605.95   Q 448.73 617.67 438.83 625.58   Q 424.56 636.98 403.70 642.78   Q 402.35 643.16 401.61 643.56   Q 401.48 643.63 401.33 643.65   Q 401.19 643.66 401.09 643.53   Q 400.96 643.33 400.72 643.40   Q 396.64 644.65 393.06 645.28   Q 371.55 649.10 349.71 648.56   Q 345.72 648.46 341.32 648.60   Q 337.03 648.73 333.01 648.83   Q 323.14 649.07 306.33 653.07   Q 301.43 654.23 296.38 655.97   Q 284.49 660.06 274.91 665.58   Q 271.55 667.52 267.96 669.80   Q 265.08 671.63 262.67 673.74   Q 262.44 673.94 262.14 673.94   Q 262.01 673.94 261.90 674.01   Q 261.75 674.09 261.60 674.21   Q 254.68 679.97 249.37 684.87   Q 246.39 687.63 243.96 690.99   A 2.38 2.38 0.0 0 1 241.64 691.95   Q 238.96 691.52 239.31 689.17   C 239.83 685.69 241.27 682.54 243.37 679.63   Q 251.62 668.20 263.18 660.01   C 263.90 659.50 264.71 659.39 265.21 658.59   Q 265.47 658.16 265.95 658.05   Q 267.15 657.76 267.93 656.75   A 1.82 1.73 9.9 0 1 268.88 656.12   Q 270.11 655.78 270.98 654.82   Q 271.34 654.42 271.86 654.26   Q 273.48 653.76 274.77 652.69   Q 275.14 652.39 275.61 652.36   Q 276.16 652.32 276.58 651.93   A 1.29 1.12 -75.5 0 1 276.96 651.67   Z   M 1265.60 661.15   Q 1265.93 661.22 1266.25 661.08   Q 1273.48 657.99 1278.38 653.70   Q 1284.86 648.05 1292.02 638.01   C 1292.45 637.40 1293.19 637.03 1293.47 636.38   Q 1293.74 635.77 1294.11 635.24   Q 1301.35 624.95 1308.03 614.85   Q 1308.84 613.62 1310.62 611.36   Q 1311.99 609.61 1313.08 607.81   C 1313.72 606.75 1314.90 606.22 1315.37 605.15   Q 1315.86 604.06 1316.71 603.28   C 1318.51 601.62 1319.57 599.55 1321.32 597.80   Q 1323.67 595.44 1326.05 593.12   Q 1326.83 592.36 1327.66 592.36   Q 1328.66 592.35 1329.48 592.91   Q 1329.91 593.20 1329.88 593.72   Q 1329.70 596.68 1328.47 599.80   A 0.81 0.79 -1.3 0 1 1328.07 600.21   Q 1327.54 600.44 1327.72 600.88   Q 1327.90 601.30 1327.68 601.70   Q 1323.83 608.67 1318.14 616.60   Q 1315.49 620.27 1313.11 624.01   Q 1311.08 627.20 1309.62 630.68   Q 1309.52 630.90 1309.35 631.06   Q 1309.22 631.19 1309.07 631.25   Q 1308.53 631.48 1308.81 631.99   Q 1309.07 632.46 1308.68 632.82   Q 1308.34 633.13 1308.21 633.58   Q 1305.68 642.61 1300.32 649.94   Q 1300.16 650.16 1299.94 650.30   Q 1299.67 650.48 1299.66 650.81   Q 1299.65 651.20 1299.41 651.51   Q 1292.90 659.86 1286.75 665.71   Q 1282.44 669.80 1272.97 678.02   C 1271.69 679.14 1270.57 679.40 1269.46 680.94   C 1267.34 683.86 1268.19 687.36 1271.59 688.51   Q 1274.74 689.58 1277.74 689.50   C 1300.48 688.91 1319.20 676.79 1335.60 661.89   Q 1344.92 653.42 1353.53 644.69   Q 1354.82 643.38 1356.67 643.19   Q 1360.17 642.82 1362.61 645.17   Q 1364.14 646.64 1365.42 647.73   Q 1367.77 649.74 1370.06 651.93   Q 1375.70 657.32 1382.28 661.27   Q 1384.39 662.53 1386.41 663.32   Q 1388.57 664.17 1390.80 664.97   A 5.44 5.43 -39.1 0 0 1393.45 665.24   C 1405.07 663.50 1417.33 662.05 1429.25 662.28   Q 1433.91 662.36 1438.56 663.81   Q 1445.60 665.99 1451.73 668.31   Q 1469.03 674.83 1486.20 681.07   C 1489.22 682.17 1492.70 683.91 1495.75 683.55   C 1504.80 682.49 1511.89 673.85 1516.95 666.21   C 1520.78 660.44 1519.60 653.25 1518.20 646.94   Q 1517.10 642.02 1516.80 637.09   Q 1516.68 635.15 1518.62 635.23   Q 1524.05 635.45 1529.14 635.59   Q 1533.78 635.72 1536.00 632.26   Q 1537.48 629.95 1536.74 626.93   Q 1534.70 618.51 1531.26 613.14   Q 1524.56 602.72 1517.94 592.13   Q 1514.54 586.69 1513.86 584.36   Q 1510.97 574.33 1502.93 564.73   Q 1496.78 557.38 1492.25 552.77   C 1490.74 551.23 1489.51 549.46 1488.02 547.85   Q 1486.43 546.13 1484.94 544.22   Q 1483.48 542.33 1482.11 540.39   Q 1477.13 533.35 1475.51 524.73   Q 1475.17 522.93 1477.00 523.04   C 1477.87 523.08 1478.78 523.32 1479.49 523.85   Q 1485.74 528.53 1490.91 532.88   Q 1501.98 542.22 1512.06 548.14   Q 1521.06 553.42 1529.51 554.59   Q 1537.59 555.70 1547.46 556.48   Q 1561.32 557.58 1572.94 557.06   C 1577.48 556.86 1580.06 555.46 1580.84 550.58   Q 1580.92 550.09 1580.61 549.70   Q 1580.07 549.01 1579.86 548.10   Q 1579.61 547.05 1579.08 546.01   Q 1568.20 524.30 1562.54 500.73   Q 1559.45 487.85 1558.46 475.90   Q 1557.46 463.77 1559.20 452.42   Q 1559.97 447.39 1561.57 442.87   A 2.92 2.91 -79.1 0 1 1564.41 440.94   Q 1567.19 441.03 1568.63 443.97   C 1570.19 447.16 1569.64 449.98 1570.05 453.27   Q 1570.40 456.08 1570.47 457.25   Q 1571.36 473.61 1574.19 489.75   Q 1577.01 505.82 1584.23 520.25   Q 1586.35 524.48 1589.29 529.04   Q 1592.10 533.38 1595.13 537.22   Q 1599.28 542.47 1606.92 547.27   Q 1611.55 550.18 1616.30 552.81   Q 1621.75 555.82 1624.75 559.17   Q 1630.38 565.45 1628.78 574.72   Q 1628.28 577.66 1626.37 580.46   Q 1614.16 598.38 1602.02 616.34   Q 1598.23 621.95 1595.36 627.71   Q 1592.14 634.16 1591.41 640.51   Q 1590.25 650.63 1591.87 663.22   A 0.23 0.23 0.0 0 1 1591.54 663.46   C 1590.33 662.88 1590.02 661.82 1589.42 660.73   Q 1583.39 649.61 1581.82 639.12   Q 1580.27 628.70 1583.34 621.53   Q 1585.90 615.55 1592.08 606.30   Q 1600.41 593.83 1608.53 581.90   Q 1611.85 577.03 1613.17 573.22   C 1614.12 570.46 1609.64 568.17 1607.57 567.38   Q 1606.83 567.10 1606.14 566.71   Q 1601.31 564.01 1594.90 562.34   C 1592.67 561.76 1590.44 562.49 1588.84 564.09   Q 1585.53 567.41 1583.34 571.38   Q 1569.82 595.88 1556.81 619.55   Q 1554.07 624.55 1552.85 631.12   Q 1552.10 635.19 1553.22 640.28   Q 1554.51 646.14 1555.98 651.49   Q 1559.72 665.16 1563.92 678.72   Q 1565.11 682.57 1568.77 688.20   C 1569.44 689.24 1570.52 689.69 1571.37 690.59   C 1572.93 692.24 1576.81 693.02 1578.71 692.90   Q 1583.65 692.60 1589.10 691.82   C 1595.50 690.91 1599.70 692.84 1604.05 697.46   Q 1606.57 700.14 1609.28 702.89   C 1613.82 707.49 1620.30 708.86 1626.31 710.60   Q 1641.68 715.05 1656.34 718.82   Q 1662.41 720.37 1669.04 722.60   C 1676.78 725.20 1684.38 728.31 1692.35 729.71   C 1698.51 730.79 1705.72 730.95 1711.22 728.09   C 1723.04 721.95 1730.16 712.66 1732.89 700.23   Q 1733.70 696.51 1734.69 693.06   C 1736.87 685.44 1743.60 687.14 1749.46 686.35   Q 1754.13 685.71 1757.80 681.62   Q 1766.07 672.38 1772.60 660.58   Q 1774.69 656.81 1777.13 653.00   C 1780.93 647.09 1778.51 640.42 1770.91 640.46   Q 1751.22 640.56 1732.53 640.42   C 1722.11 640.34 1715.44 649.26 1711.67 658.25   Q 1710.94 659.98 1710.21 661.73   Q 1705.93 672.04 1703.83 675.36   Q 1701.39 679.20 1697.49 681.64   Q 1694.60 683.44 1691.55 683.76   Q 1689.76 683.95 1687.97 684.22   Q 1686.32 684.47 1684.50 684.11   Q 1671.09 681.45 1659.14 677.36   Q 1651.42 674.72 1645.40 669.93   Q 1640.00 665.64 1636.80 659.25   C 1636.21 658.09 1636.37 657.12 1635.97 655.94   C 1635.03 653.15 1635.93 649.16 1637.20 646.79   Q 1638.38 644.56 1640.42 642.43   Q 1642.25 640.51 1644.08 638.42   Q 1649.13 632.64 1655.09 626.44   C 1658.63 622.75 1662.73 619.36 1666.56 615.79   Q 1667.95 614.49 1669.50 613.38   Q 1670.85 612.41 1672.94 611.91   Q 1677.16 610.90 1681.13 609.11   Q 1688.90 605.61 1695.98 600.27   C 1699.73 597.44 1703.24 593.39 1706.79 589.89   C 1707.28 589.40 1707.26 588.91 1707.66 588.41   Q 1711.79 583.43 1714.22 578.53   Q 1715.90 575.13 1716.97 571.27   C 1718.18 566.88 1720.25 563.38 1723.95 560.69   Q 1724.33 560.42 1724.79 560.52   Q 1725.52 560.70 1726.26 560.36   Q 1726.85 560.10 1727.22 560.63   Q 1727.75 561.39 1728.56 561.78   Q 1729.02 562.00 1728.91 562.49   C 1728.45 564.51 1729.38 566.21 1729.19 568.26   Q 1728.45 576.21 1725.37 583.66   Q 1723.56 588.03 1721.90 592.47   Q 1721.34 593.96 1722.92 594.09   Q 1735.21 595.13 1747.88 594.29   Q 1759.50 593.51 1771.88 591.30   Q 1789.61 588.14 1806.53 585.52   C 1825.33 582.61 1843.28 583.07 1862.14 585.02   Q 1878.27 586.68 1891.44 585.42   Q 1902.09 584.39 1911.23 579.69   Q 1923.67 573.30 1927.97 560.69   Q 1930.94 551.98 1931.13 540.75   Q 1931.33 528.41 1929.95 516.04   Q 1928.53 503.37 1926.40 491.53   Q 1925.60 487.10 1929.91 487.30   A 2.63 2.61 77.9 0 1 1932.13 488.75   Q 1933.02 490.56 1933.70 492.49   Q 1936.16 499.51 1937.91 506.36   C 1938.58 508.99 1939.63 511.49 1939.86 514.25   Q 1939.89 514.62 1940.12 514.91   Q 1940.23 515.06 1940.28 515.26   Q 1944.22 531.68 1946.23 545.31   Q 1948.38 559.91 1949.82 565.35   Q 1953.73 580.21 1960.55 593.01   Q 1963.66 598.86 1967.13 604.64   Q 1970.84 610.81 1974.74 615.54   Q 1982.48 624.92 1993.25 631.82   Q 1996.39 633.83 2000.84 635.96   Q 2004.97 637.94 2008.89 639.41   Q 2020.44 643.75 2034.31 644.40   Q 2039.44 644.64 2047.91 643.61   Q 2054.80 642.78 2061.26 642.02   Q 2063.68 641.73 2071.00 641.99   Q 2105.62 643.21 2133.43 663.70   Q 2145.24 672.41 2155.26 684.76   Q 2156.27 686.01 2157.13 687.39   A 1.66 1.65 54.4 0 1 2156.78 689.55   C 2155.67 690.45 2154.41 690.26 2153.29 689.43   Q 2148.48 685.88 2143.62 681.85   Q 2143.19 681.49 2142.62 681.47   Q 2142.05 681.45 2141.80 680.88   Q 2141.60 680.42 2141.20 680.12   Q 2126.47 668.96 2115.49 663.18   Q 2106.58 658.48 2098.27 655.84   Q 2081.75 650.58 2064.00 651.42   Q 2055.03 651.85 2046.18 652.98   Q 2035.68 654.33 2025.00 654.53   Q 2012.12 654.78 1997.64 648.68   Q 1989.45 645.24 1982.30 640.01   Q 1962.40 625.45 1948.26 602.08   C 1944.87 596.48 1942.07 591.07 1939.79 584.88   C 1937.68 579.13 1930.55 583.77 1929.38 587.60   Q 1928.93 589.06 1929.09 590.39   Q 1930.87 604.93 1935.23 622.55   Q 1936.98 629.62 1939.49 635.69   Q 1945.53 650.28 1958.81 660.43   Q 1959.60 661.03 1960.34 661.55   Q 1967.22 666.36 1974.31 670.88   Q 1981.84 675.67 1988.00 677.86   C 1998.95 681.74 2008.58 682.25 2019.68 680.05   Q 2043.44 675.34 2069.23 682.27   Q 2087.46 687.17 2102.32 696.72   Q 2108.71 700.82 2115.85 705.86   Q 2119.27 708.27 2123.97 712.51   Q 2128.76 716.83 2135.74 719.64   Q 2142.39 722.32 2151.18 721.40   C 2156.75 720.83 2161.46 717.38 2166.50 715.10   Q 2175.88 710.84 2183.00 717.26   Q 2186.15 720.10 2191.22 727.30   Q 2194.29 731.66 2197.16 735.17   Q 2200.04 738.68 2203.44 741.77   C 2211.49 749.10 2222.84 749.40 2233.51 748.87   Q 2243.13 748.39 2251.91 747.70   Q 2253.04 747.61 2254.18 747.28   A 0.85 0.84 79.4 0 0 2254.79 746.38   Q 2254.32 741.94 2253.54 737.43   C 2253.34 736.27 2252.56 735.37 2252.90 734.26   Q 2253.07 733.70 2252.76 733.21   Q 2252.14 732.24 2252.25 731.10   Q 2252.31 730.55 2252.01 730.09   C 2251.41 729.18 2251.53 728.29 2251.25 727.27   Q 2247.84 714.92 2242.54 703.11   A 0.71 0.71 0.0 0 0 2241.85 702.69   Q 2233.30 703.11 2226.41 698.12   C 2223.75 696.19 2220.32 693.50 2218.27 690.74   C 2216.60 688.49 2214.68 686.61 2212.95 684.27   Q 2207.66 677.14 2201.67 670.38   C 2196.03 664.01 2189.46 658.77 2183.20 652.96   Q 2181.25 651.15 2179.76 649.08   Q 2178.19 646.90 2177.36 644.41   Q 2173.41 632.66 2169.69 618.03   Q 2168.78 614.48 2165.37 606.26   Q 2164.42 603.97 2163.19 602.01   Q 2161.83 599.83 2160.45 598.35   Q 2158.37 596.12 2154.18 594.74   C 2152.22 594.10 2150.27 594.24 2148.29 593.89   Q 2146.26 593.53 2144.08 593.50   Q 2134.46 593.37 2126.84 592.07   Q 2120.16 590.93 2115.23 588.12   Q 2098.92 578.83 2106.46 560.17   Q 2114.77 539.63 2115.46 519.28   Q 2115.69 512.26 2114.57 505.43   Q 2113.70 500.18 2112.25 495.76   Q 2110.70 491.05 2109.47 486.21   Q 2108.34 481.78 2108.69 478.49   Q 2108.89 476.67 2110.62 475.17   C 2112.10 473.88 2114.19 474.41 2116.00 474.46   Q 2117.27 474.49 2118.47 474.83   Q 2132.46 478.73 2143.33 479.64   Q 2163.15 481.29 2184.61 474.29   Q 2195.69 470.68 2206.69 462.36   Q 2217.14 454.45 2224.35 444.67   Q 2236.23 428.56 2238.61 410.31   Q 2239.59 402.75 2238.36 394.92   C 2235.18 374.77 2226.12 356.59 2213.12 339.63   Q 2202.64 325.96 2188.39 312.71   Q 2188.21 312.54 2187.99 312.46   Q 2187.73 312.36 2187.48 312.25   Q 2187.32 312.18 2187.43 312.05   Q 2187.53 311.93 2187.41 311.82   Q 2181.69 306.64 2176.18 301.87   Q 2173.77 299.79 2171.28 297.78   C 2168.19 295.30 2159.78 288.04 2162.20 283.50   Q 2163.09 281.83 2164.31 281.30   C 2167.27 280.03 2170.26 278.59 2173.45 277.82   Q 2185.92 274.81 2196.69 271.87   C 2217.42 266.20 2232.55 253.27 2238.77 232.24   C 2242.79 218.63 2242.37 203.20 2239.29 189.50   Q 2238.93 187.92 2237.93 186.62   A 2.12 2.11 -40.2 0 0 2234.82 186.36   Q 2231.33 189.57 2227.93 192.69   Q 2224.18 196.11 2220.49 198.22   Q 2213.16 202.43 2204.65 204.53   Q 2201.75 205.25 2198.79 206.06   Q 2196.99 206.56 2193.99 206.85   Q 2193.43 206.91 2193.05 207.33   Q 2192.75 207.67 2192.36 207.53   Q 2192.02 207.42 2191.67 207.49   Q 2185.23 208.82 2179.92 210.18   Q 2160.05 215.26 2143.36 226.05   Q 2141.06 227.54 2138.82 229.41   Q 2136.71 231.18 2134.57 233.02   C 2131.38 235.76 2128.72 238.93 2126.31 242.30   C 2120.87 249.92 2117.46 259.16 2118.60 268.35   Q 2120.12 280.65 2125.74 288.85   Q 2132.95 299.38 2135.63 302.21   Q 2139.04 305.82 2142.27 309.36   Q 2145.87 313.32 2149.13 316.42   Q 2171.05 337.35 2180.98 348.23   Q 2193.36 361.79 2199.34 374.52   Q 2203.64 383.67 2205.23 392.98   Q 2207.36 405.46 2201.13 416.65   C 2197.03 424.01 2188.71 432.20 2180.38 435.68   C 2171.70 439.32 2162.42 440.80 2153.22 440.50   Q 2141.86 440.13 2130.15 436.83   Q 2121.83 434.49 2111.86 429.32   Q 2099.83 423.07 2089.33 416.41   Q 2072.57 405.79 2051.99 392.00   Q 2036.48 381.60 2022.13 374.03   Q 2009.32 367.26 1996.29 362.68   C 1991.46 360.98 1986.92 358.93 1981.98 357.42   Q 1977.54 356.07 1973.66 355.17   Q 1958.19 351.61 1943.97 348.68   Q 1935.05 346.84 1925.25 343.05   Q 1917.00 339.87 1909.93 334.91   Q 1897.53 326.20 1883.85 316.50   Q 1880.24 313.94 1874.97 310.57   Q 1859.44 300.61 1840.75 297.28   Q 1833.99 296.08 1826.28 294.93   C 1819.69 293.95 1813.69 290.84 1807.82 286.60   Q 1801.21 281.82 1794.69 276.99   Q 1782.67 268.09 1771.23 261.37   Q 1762.96 256.51 1753.58 252.59   Q 1743.21 248.26 1732.73 245.14   Q 1715.53 240.03 1695.28 235.75   C 1691.74 235.00 1688.04 233.59 1685.22 231.41   C 1677.89 225.73 1673.04 217.26 1666.45 211.51   Q 1657.72 203.89 1645.81 196.26   Q 1639.64 192.30 1632.50 189.00   Q 1615.23 181.02 1595.62 182.37   Q 1591.29 182.67 1586.92 184.18   Q 1581.94 185.90 1578.54 188.05   Q 1571.01 192.79 1568.86 194.60   Q 1558.48 203.34 1547.87 212.36   Q 1537.10 221.51 1509.41 241.65   Q 1485.53 259.01 1462.55 276.03   Q 1441.80 291.40 1422.14 308.13   C 1420.32 309.68 1418.73 311.46 1416.88 312.92   Q 1414.72 314.62 1412.79 316.48   C 1406.66 322.38 1400.49 327.80 1394.55 334.03   Q 1388.41 340.47 1382.72 346.80   C 1374.62 355.81 1367.27 366.19 1361.54 377.24   Q 1361.32 377.65 1360.98 377.94   Q 1360.64 378.24 1360.63 378.67   Q 1360.63 379.15 1360.33 379.54   C 1359.95 380.03 1359.60 380.34 1359.32 380.92   Q 1349.13 401.87 1343.16 421.01   Q 1336.71 441.66 1328.54 470.97   Q 1325.75 480.96 1323.46 490.27   Q 1319.19 507.61 1313.81 528.06   C 1309.08 546.07 1303.65 563.07 1296.34 579.50   Q 1288.19 597.82 1277.70 612.60   Q 1272.47 619.96 1266.99 626.08   Q 1252.70 642.03 1234.23 654.19   Q 1233.93 654.39 1233.57 654.40   Q 1233.25 654.41 1233.09 654.68   C 1230.06 659.83 1233.48 662.77 1238.26 663.70   Q 1252.07 666.39 1265.15 661.57   Q 1265.31 661.51 1265.31 661.34   Q 1265.31 661.28 1265.34 661.24   Q 1265.44 661.11 1265.60 661.15   Z   M 687.90 628.29   Q 687.50 628.52 687.16 628.21   Q 686.75 627.83 686.20 627.82   Q 681.84 627.77 680.39 628.94   Q 676.72 631.90 680.00 635.92   C 682.30 638.73 685.25 640.93 687.68 643.69   Q 689.52 645.77 690.68 647.98   Q 694.39 655.06 698.20 663.79   C 699.00 665.63 700.12 667.23 701.07 668.97   Q 703.87 674.11 710.15 674.02   Q 713.35 673.97 716.14 673.29   Q 721.58 671.97 727.76 669.17   Q 730.34 668.00 732.45 666.52   Q 734.72 664.94 737.00 663.38   C 738.21 662.55 738.30 661.53 739.21 660.55   A 1.50 1.49 65.8 0 0 739.61 659.48   C 739.55 656.99 737.91 654.25 736.49 652.17   C 735.47 650.68 735.04 649.10 734.31 647.47   Q 733.43 645.50 732.90 643.72   Q 731.18 637.99 729.35 632.42   Q 726.68 624.30 718.77 625.52   Q 703.22 627.92 687.57 627.65   Q 687.15 627.64 687.41 627.98   Q 687.60 628.21 687.85 628.15   Q 688.39 628.02 687.90 628.29   Z   M 1702.94 643.12   Q 1703.81 640.36 1704.33 636.92   C 1704.73 634.29 1702.20 632.38 1699.89 632.19   Q 1697.62 632.00 1694.87 632.45   Q 1692.11 632.89 1689.14 632.91   Q 1680.87 632.94 1672.00 632.87   Q 1668.00 632.83 1664.16 633.32   Q 1663.68 633.38 1663.46 633.82   L 1659.69 641.52   A 0.76 0.76 0.0 0 0 1659.64 642.04   Q 1659.72 642.34 1659.59 642.60   Q 1655.48 650.06 1655.69 658.57   C 1655.74 660.34 1656.42 661.54 1657.06 663.10   C 1658.80 667.34 1664.50 670.05 1668.85 671.11   Q 1674.49 672.49 1679.66 673.34   Q 1686.23 674.42 1691.91 672.18   C 1693.15 671.69 1694.91 669.42 1695.42 668.20   Q 1698.15 661.75 1700.06 655.24   Q 1700.27 654.50 1700.65 653.83   Q 1700.92 653.37 1700.84 652.84   C 1700.67 651.66 1701.53 650.91 1701.75 649.74   Q 1702.24 647.18 1703.08 644.65   Q 1703.24 644.18 1703.00 643.74   Q 1702.84 643.44 1702.94 643.12   Z   M 143.22 682.70   C 145.83 685.29 149.38 686.85 153.01 686.27   Q 156.42 685.72 160.06 683.93   Q 160.52 683.69 160.81 683.26   C 161.44 682.27 162.53 682.09 163.45 681.28   Q 168.34 676.97 172.41 671.92   Q 178.81 663.99 183.92 654.57   Q 184.79 652.97 184.41 651.22   Q 184.31 650.75 183.96 650.43   C 183.17 649.70 183.01 648.65 182.24 647.81   C 180.33 645.76 178.18 644.26 176.04 642.49   Q 171.73 638.95 167.24 641.58   Q 160.20 645.68 144.94 656.49   C 144.01 657.14 143.32 658.26 142.44 658.64   Q 141.39 659.10 140.51 659.89   Q 135.02 664.75 135.46 672.47   C 135.53 673.78 135.94 675.22 136.87 676.20   Q 140.19 679.69 143.22 682.70   Z   M 2222.12 642.88   Q 2221.42 642.94 2220.82 643.33   Q 2217.82 645.33 2215.09 647.58   C 2213.99 648.48 2213.52 649.58 2212.57 650.57   C 2209.10 654.14 2211.60 658.87 2214.15 662.53   Q 2220.76 672.00 2229.12 681.13   C 2232.00 684.28 2236.68 687.40 2241.22 687.57   Q 2244.68 687.70 2247.41 686.67   Q 2255.10 683.79 2261.19 674.27   C 2263.51 670.64 2262.04 667.27 2259.36 664.39   Q 2254.88 659.58 2249.19 655.64   Q 2240.51 649.65 2232.23 643.68   Q 2227.84 640.52 2223.07 642.63   Q 2222.62 642.83 2222.12 642.88   Z   M 130.81 720.37   C 131.23 718.21 132.14 716.07 132.74 713.93   Q 134.44 707.96 136.96 700.93   Q 137.10 700.52 136.90 700.13   L 135.34 697.24   A 0.63 0.61 78.1 0 0 134.85 696.91   Q 134.38 696.86 134.40 696.44   Q 134.41 696.05 134.18 695.75   C 131.05 691.73 124.98 684.51 120.18 683.66   Q 118.11 683.30 116.01 684.61   Q 107.76 689.76 104.16 697.18   C 103.29 698.97 103.47 701.00 103.16 702.92   Q 102.82 704.95 102.75 707.14   Q 102.50 714.16 101.08 720.67   C 100.31 724.22 98.57 727.91 95.93 730.45   C 93.87 732.43 92.51 735.95 93.46 738.80   A 2.02 2.00 -87.3 0 0 94.54 740.00   Q 105.51 744.85 119.53 748.33   C 121.41 748.80 122.51 746.76 123.04 745.34   Q 126.27 736.60 128.83 726.93   C 129.43 724.69 130.36 722.66 130.81 720.37   Z   M 2258.60 701.28   Q 2258.16 704.20 2258.81 706.05   Q 2260.58 711.09 2261.86 715.76   Q 2262.56 718.30 2263.23 720.49   Q 2263.32 720.75 2263.30 721.03   C 2263.26 721.95 2263.92 722.76 2264.14 723.74   Q 2266.04 732.03 2268.04 740.17   Q 2268.47 741.95 2268.72 743.73   Q 2269.25 747.49 2271.79 750.34   A 2.39 2.39 0.0 0 0 2274.33 751.01   Q 2285.87 747.09 2297.10 743.54   C 2299.97 742.63 2301.86 740.93 2301.31 737.71   Q 2300.73 734.36 2299.52 731.80   Q 2297.21 726.95 2295.28 722.20   Q 2294.05 719.20 2293.18 711.82   Q 2292.74 708.04 2292.11 704.29   C 2291.06 698.03 2290.36 693.47 2286.28 689.70   Q 2280.20 684.10 2273.18 685.89   C 2270.43 686.59 2267.86 688.29 2265.32 689.65   Q 2264.88 689.88 2264.64 690.33   C 2263.96 691.59 2262.58 691.76 2261.67 692.89   Q 2258.81 696.44 2258.35 700.90   Q 2258.34 700.99 2258.41 701.05   Q 2258.44 701.09 2258.49 701.10   Q 2258.62 701.15 2258.60 701.28   Z"
     id="path15"
     style="fill:#000000;fill-opacity:1" />
  <path
     fill="#ffc800"
     d="   M 1600.90 280.39   Q 1603.49 286.52 1598.13 292.06   Q 1594.83 295.47 1590.90 298.99   Q 1577.58 310.92 1564.85 323.84   Q 1563.45 325.26 1562.28 326.85   C 1561.23 328.28 1559.98 329.40 1558.86 330.78   Q 1548.17 344.08 1541.49 359.48   A 1.42 1.41 -85.8 0 1 1540.58 360.27   C 1538.68 360.79 1536.86 359.78 1536.78 357.73   Q 1535.97 337.64 1544.99 321.13   Q 1551.50 309.22 1559.59 299.86   Q 1567.58 290.63 1576.20 283.25   Q 1579.29 280.60 1582.25 278.18   Q 1585.55 275.48 1588.58 274.90   C 1594.32 273.80 1598.49 274.69 1600.90 280.39   Z"
     id="path18"
     style="fill:#000000;fill-opacity:1" />
  <path
     fill="#ffc800"
     d="   M 825.11 322.01   Q 821.95 317.43 822.98 312.09   Q 823.26 310.64 824.51 309.08   C 827.26 305.60 832.27 305.52 836.07 307.23   Q 836.86 307.58 837.51 308.24   C 838.27 309.00 839.13 309.14 839.88 309.98   Q 852.64 324.26 854.50 343.43   Q 855.17 350.32 854.96 356.40   Q 854.72 363.40 853.91 369.47   Q 852.94 376.67 850.75 383.37   Q 850.58 383.87 850.07 384.00   Q 847.12 384.75 846.61 381.87   Q 842.90 361.01 838.16 345.79   Q 836.51 340.52 832.89 333.42   Q 832.26 332.20 831.52 331.31   C 830.73 330.37 830.60 329.40 829.87 328.47   Q 827.41 325.34 825.11 322.01   Z"
     id="path19"
     style="fill:#000000;fill-opacity:1" />
  <path
     fill="#ffc800"
     d="   M 983.12 473.11   Q 983.14 472.83 983.26 472.58   Q 985.64 467.52 987.92 462.52   Q 989.12 459.88 991.54 457.33   C 995.71 452.95 1001.72 452.28 1007.04 455.03   Q 1008.61 455.85 1009.95 457.20   C 1011.28 458.55 1012.95 459.81 1013.85 461.49   Q 1014.34 462.39 1015.06 463.09   Q 1016.07 464.07 1016.91 465.58   Q 1017.44 466.55 1018.06 467.43   Q 1018.68 468.32 1019.13 469.26   Q 1020.24 471.66 1021.92 473.72   Q 1022.78 474.77 1023.44 475.92   C 1024.07 477.02 1025.23 477.49 1025.92 478.61   C 1027.37 480.95 1029.45 482.55 1031.04 484.77   Q 1035.79 491.39 1039.15 498.91   Q 1041.75 504.74 1042.54 509.89   Q 1043.47 515.97 1042.95 522.78   Q 1042.50 528.61 1040.09 534.14   Q 1037.67 539.69 1032.35 538.99   A 2.75 2.74 -4.3 0 1 1030.08 537.04   C 1029.23 534.04 1029.64 531.00 1029.20 527.94   Q 1028.69 524.29 1028.23 520.62   Q 1027.50 514.78 1025.44 511.24   Q 1024.25 509.18 1023.05 507.01   C 1022.40 505.81 1021.23 505.19 1020.77 504.01   C 1020.32 502.85 1019.35 502.22 1018.61 501.23   Q 1012.88 493.61 1005.46 488.86   Q 1000.40 485.63 995.10 489.48   Q 990.79 492.61 988.06 496.00   Q 985.29 499.45 982.73 503.31   Q 981.81 504.69 980.17 504.83   C 978.49 504.98 977.70 503.18 977.10 501.92   Q 976.90 501.49 977.03 501.03   C 977.40 499.77 976.62 498.39 976.56 497.05   Q 976.15 488.83 980.03 479.58   Q 981.21 476.75 982.84 474.01   Q 983.09 473.59 983.12 473.11   Z"
     id="path20"
     style="fill:#000000;fill-opacity:1" />
  <path
     fill="#ffc800"
     d="   M 1394.63 513.45   Q 1388.61 518.91 1384.88 525.20   Q 1382.89 528.55 1381.81 533.30   Q 1380.71 538.08 1379.88 542.25   Q 1379.36 544.84 1377.79 546.73   C 1374.93 550.17 1369.15 547.71 1368.84 543.63   Q 1367.28 523.15 1377.45 507.45   Q 1380.33 503.01 1383.87 499.62   Q 1387.50 496.15 1390.97 492.85   Q 1393.69 490.26 1396.85 486.77   Q 1399.67 483.66 1402.15 480.53   Q 1407.90 473.27 1413.96 465.54   Q 1415.59 463.46 1417.35 461.59   C 1421.50 457.17 1430.70 467.84 1432.72 470.83   Q 1439.63 481.07 1446.12 494.96   C 1448.33 499.67 1448.62 505.01 1443.28 507.80   C 1439.40 509.84 1436.52 507.17 1434.16 504.48   C 1431.35 501.27 1429.46 494.17 1424.18 494.43   Q 1422.73 494.50 1421.17 494.56   Q 1419.95 494.60 1418.82 495.21   C 1417.29 496.04 1415.66 496.66 1414.21 497.68   Q 1404.43 504.56 1394.63 513.45   Z"
     id="path21"
     style="fill:#000000;fill-opacity:1" />
  <path
     fill="#ffc800"
     d="   M 1001.86 617.79   Q 1001.65 621.46 1000.29 625.15   C 999.29 627.84 997.69 629.71 994.87 630.63   Q 984.01 634.17 972.28 632.72   Q 969.92 632.43 968.72 630.86   Q 966.95 628.58 968.22 625.82   Q 973.03 615.42 981.73 608.85   Q 987.18 604.74 994.04 603.95   C 995.39 603.79 996.46 604.18 997.77 604.30   C 999.68 604.47 1001.56 606.27 1001.88 608.10   C 1002.42 611.21 1002.09 613.91 1001.86 617.79   Z"
     id="path22"
     style="fill:#000000;fill-opacity:1" />
  <path
     fill="#ffc800"
     d="   M 1411.71 622.95   Q 1409.43 616.97 1409.54 611.17   C 1409.60 607.66 1412.67 605.48 1416.18 605.71   Q 1420.35 605.99 1423.30 607.21   Q 1425.45 608.10 1427.68 609.02   C 1429.15 609.62 1429.74 610.76 1431.03 611.32   Q 1431.82 611.66 1432.43 612.28   C 1436.67 616.56 1439.91 622.18 1439.64 628.22   C 1439.47 631.90 1436.46 634.55 1433.05 635.05   Q 1424.07 636.37 1418.48 632.09   Q 1413.84 628.53 1411.71 622.95   Z"
     id="path23"
     style="fill:#000000;fill-opacity:1" />
</svg>
