<?xml version="1.0" encoding="UTF-8" standalone="no"?>
<svg
   version="1.1"
   viewBox="0.00 0.00 1663.00 1260.00"
   id="svg3"
   sodipodi:docname="williams.svg"
   inkscape:version="1.3 (0e150ed6c4, 2023-07-21)"
   xmlns:inkscape="http://www.inkscape.org/namespaces/inkscape"
   xmlns:sodipodi="http://sodipodi.sourceforge.net/DTD/sodipodi-0.dtd"
   xmlns="http://www.w3.org/2000/svg"
   xmlns:svg="http://www.w3.org/2000/svg">
  <defs
     id="defs3" />
  <sodipodi:namedview
     id="namedview3"
     pagecolor="#ffffff"
     bordercolor="#000000"
     borderopacity="0.25"
     inkscape:showpageshadow="2"
     inkscape:pageopacity="0.0"
     inkscape:pagecheckerboard="0"
     inkscape:deskcolor="#d1d1d1"
     inkscape:zoom="0.25435959"
     inkscape:cx="831.5"
     inkscape:cy="630.99645"
     inkscape:window-width="1366"
     inkscape:window-height="705"
     inkscape:window-x="-8"
     inkscape:window-y="-8"
     inkscape:window-maximized="1"
     inkscape:current-layer="svg3" />
  <path
     fill="#00a0de"
     d="   M 835.04 0.00   L 836.78 0.00   C 837.14 4.16 838.51 6.91 840.58 10.54   Q 842.37 13.68 843.42 15.84   Q 1047.00 434.79 1249.92 853.58   Q 1278.70 912.98 1307.32 971.72   C 1309.77 976.75 1308.50 981.21 1306.17 986.66   Q 1248.81 1121.00 1191.62 1255.42   C 1191.21 1256.39 1191.12 1257.39 1190.30 1258.08   A 0.46 0.45 57.7 0 1 1189.60 1257.92   L 832.34 504.90   A 0.06 0.06 0.0 0 0 832.24 504.90   L 487.89 1257.82   A 0.56 0.56 0.0 0 1 486.88 1257.82   Q 433.14 1144.45 379.24 1029.51   Q 369.11 1007.90 358.88 986.89   Q 354.08 977.04 359.22 966.86   Q 382.08 921.55 403.55 878.04   Q 523.84 634.29 643.74 390.19   Q 714.99 245.14 797.48 77.74   Q 810.82 50.67 835.04 0.00   Z"
     id="path1"
     style="fill:#000000;fill-opacity:1" />
  <path
     fill="#00a0de"
     d="   M 1393.25 16.19   Q 1431.96 16.55 1472.75 16.32   C 1473.64 16.31 1474.73 16.64 1475.75 16.64   Q 1564.81 16.60 1660.90 16.63   A 0.31 0.30 -79.8 0 1 1661.18 17.04   L 1342.09 887.21   A 0.47 0.47 0.0 0 1 1341.23 887.26   Q 1335.82 876.65 1330.02 865.29   Q 1276.47 760.38 1211.88 633.27   Q 1199.88 609.65 1178.76 568.97   Q 1177.58 566.69 1177.63 563.65   Q 1177.66 561.62 1178.79 558.46   Q 1191.13 523.85 1204.28 486.51   Q 1286.19 253.90 1368.44 21.46   Q 1369.37 18.83 1370.73 17.68   Q 1372.58 16.12 1375.50 16.12   Q 1384.37 16.11 1393.25 16.19   Z"
     id="path2"
     style="fill:#000000;fill-opacity:1" />
  <path
     fill="#00a0de"
     d="m 267.94729,16.244842 q -38.70997,0.36 -79.49997,0.13 c -0.89,-0.01 -1.98,0.32 -3,0.32 q -89.06,-0.04 -185.14999974,-0.01 a 0.31,0.3 79.8 0 0 -0.28,0.41 L 319.10729,887.26488 a 0.47,0.47 0 0 0 0.86,0.05 q 5.41,-10.61 11.21,-21.97004 53.55,-104.91 118.14,-232.02 12,-23.62 33.12,-64.3 1.18,-2.28 1.13,-5.32 -0.03,-2.03 -1.16,-5.19 -12.34,-34.61 -25.49,-71.95 -81.91,-232.61 -164.16,-465.049998 -0.93,-2.63 -2.29,-3.78 -1.85,-1.56 -4.77,-1.56 -8.87,-0.01 -17.75,0.07 z"
     id="path2-0"
     style="fill:#000000;fill-opacity:1" />
</svg>
